<?xml version="1.0" encoding="utf-8"?>
<!-- Generator: Adobe Illustrator 18.1.1, SVG Export Plug-In . SVG Version: 6.00 Build 0)  -->
<svg version="1.1" xmlns="http://www.w3.org/2000/svg" xmlns:xlink="http://www.w3.org/1999/xlink" x="0px" y="0px"
	 viewBox="0 0 588.9 514.4" style="enable-background:new 0 0 588.9 514.4;" xml:space="preserve">
<style type="text/css">
	.st0{display:none;}
	.st1{fill:#373731;}
	.st2{fill:#403C3D;}
	.st3{fill:#B7BABB;}
	.st4{fill:#B2B5B6;}
	.st5{fill:#B9BBBC;}
	.st6{fill:#F7F7F7;}
	.st7{fill:#DFE1DF;}
</style>
<g id="Layer_1" class="st0">
	
		<image style="display:inline;overflow:visible;" width="872" height="608" xlink:href="FAD04A8591BE3908.png"  transform="matrix(0.5 0 0 0.5 78.1793 100.3658)">
	</image>
</g>
<g id="light_black">
	<path class="st1" d="M120.3,312.1l6.9,8.9v7.2l12.7,1.7l3.4,8.6l4.1,17.5c0,0-2.1-36.1,1.8,41.3c4,77.4,18.1,7.4,18.1,7.4
		l19.9,21.8l20.2-9.8l13.5,4.5l-3.2-14.6c0,0,6.2-21.4,14.8-31v-12.4h3.1v-9.6l-1.7-5.8l9.6,12.7l4.5-15.8
		c0,0,101.6-20.9,135.4-49.7l40.7,26.1c0,0,11,9.9,11.5,32.6v24l3.9,18.2c0,0,11-7.9,31.2-25l3-18.9l3.5,2.8l1.6,1.3h11.2l24.7,21.6
		l15.4,19.7h6.5h5.8l-5.8-2.6c0,0,7.5-0.3,5.8-1.4c-1.7-1-5.8-3.8-5.8-3.8s6.2-40.8-9.3-47.3c0,0-15.1-16.5-8.6-48.2
		c0,0,14.1-51.3-3.4-85.6c0,0,2.1-21.6-11-30.9c0,0-32.6-39.8-62.1-36.4c0,0-8.2-5.8-9.6-5.8c-1.4,0-8.2,2.7-8.2,2.7
		s-32.3-7.5-53.2,0.7c0,0-17.5,0.5-24.4-3.8h-10.3v7.6c0,0-17.8,6.2-22.6,5.1c0,0-16.8-12-37.1-0.7l-5.8-1.4l2.7-4.5h-16.5
		l-11.7-2.7l-11-10.6c0,0-7.9-15.4-15.4-15.4c0,0-8.9-12-7.2-18c0,0-18.9-15.6-31.9-33.8c0,0-14.4-37-27.4-37.4
		c0,0-16.8-11.3-61.2-4.8c0,0-12.9,2.6-12.9,13.3c0,0-3,5.6-11,10.7s-6.8,15.9-6.8,15.9l15.6,30.9c0,0,19.7,21.1,19.7,23.2l1.4,17.5
		l-8.2,35l17.4,111.8L120.3,312.1z"/>
	<path class="st2" d="M24.8,62.6c0,0,14.2-8.1,11.6-20.6c0,0-16-4.2-16.5,2.3C19.9,44.4,15.1,47.6,24.8,62.6z"/>
	<path class="st1" d="M504.2,177.6l21.6,27.4l9.3,20c0,0,0.9,11.5,7.5,15.7c0,0,16.2,12,17.6,20.4l8.2,40c0,0,4.1,5.5,0,19.9
		l1.8,19.9h-7.3v11l-8.2-5.6l-14.8-8.1c0,0-23.3-20-16.5-73.4"/>
</g>
<g id="caramel_layer">
	<path class="st3" d="M151.5,351.9c0,0-0.1,27.8-1.4,32.2c0,0-2.3,7.5,0,20.6c0,0,1.8,13.4-1,18.8l-9.3,18.5c0,0-10,0.1-16.1,4.5
		v11.7l6.4,5.7l11.5,2.9c0,0,18.8,1.2,23.2-12.2c0,0,7-15.7,9-26.2l0.5-2.1l3.7-14.6l-3.5-6.2c0,0-5.4-4.6-4.6-5.7
		c0.8-1,4.4-5.4,4.4-5.4l-5.4-33.7l-2.3-5.4c0,0-7.2,1.3-7.2,0.5c0-0.8-2.3-9.5-2.3-9.5L151.5,351.9z"/>
	<path class="st4" d="M174.5,425.7c0,0,9.1,13,3.5,23.3c0,0-5.8,15.7-16.1,26.2l6.8,9.9l7.5,10.9c0,0,22.6-2.1,24.7-7.9
		c0,0,7.4-20.6,7.1-29.8l0-8.2c0,0,19.3,2.7,21.6,6.4c0,0-2.3-6.1-11.3-10.6c-9-4.5,0-1.2,0-1.2l5.1-1.5l-2.8-4.9l-1-3.1l2.6-1
		l-1.5-3.3l-2.3-3.9l8-1.2l-5.7-4.8l-3.9-4.1l-5.9-7.5l-5.7,1.3l-5.1-2.6l-2.3,5.7l-4.6,4.1l-7.7,2.6l-3.3-2.6l-4-6.2L174.5,425.7z"
		/>
	<polygon class="st3" points="176.1,426.5 175.4,422.2 177,422.2 177,418.2 178.9,418.2 178.1,415.2 178.9,412.9 178.1,411.6 
		173.5,417.5 173.5,425.6 	"/>
	<polygon class="st4" points="119.9,294.3 133.4,302.3 138.6,302.3 145.3,309.2 149.4,309.2 147.1,298.7 147.8,295.6 150.9,291 
		145.3,283 144,275.8 144.2,261.1 136.8,268.6 127.2,266.1 123.7,266.3 117.7,271.4 116.7,285.2 	"/>
	<path class="st4" d="M91.8,122.7c0,0,6.5-12.4-6.7-16.1c0,0-20.9-9.1-23.2-12.5c0,0-6.3-3.6-8.9-4.8l-4.3-11.8l6.2-16.1l12.5-6.5
		c0,0,8.4,2.6,8.8,7.9c0,0-2.6,6.9,1.9,9.1c0,0,15.4,5.7,18.4,21.4c0,0,4.8,9.1,1.4,23.2c0,0,5.3,5.3,19.4,1.2l-7,9.8L97,134
		l-7.4-5.3L91.8,122.7z"/>
	<path class="st4" d="M80.7,30.9c0,0,9.8,3.6,10.6-4.8c0,0-2.4-5.5-9.6-1.4C81.7,24.7,79.1,25.4,80.7,30.9z"/>
	<path class="st4" d="M106.5,82.4v9.1c0,0,1.3,1.5,6.3-2.2C112.8,89.2,119.4,79.6,106.5,82.4z"/>
	<path class="st5" d="M383.3,294.9c0,0,9.9,25,46.8,34.7c0,0,4.3,2.4,4.5,8.2c0,0,14.6,15.6,44.1,18.2c0,0-26.9-22.1-33.5-24.7
		l-8.2-3.8l-1-6.9l-9.9-0.5l-7.2-10.6l-1-8.7l-4.8-2.2l-6.4-0.5l-9.1-3.9h-7.7L383.3,294.9z"/>
	<path class="st4" d="M484.7,356c0,0,30.9,24.5,25,52.1c0,0-3.4,15.5-7,19.8l11.9,11.9h14.4l2.7,5.4c0,0,8.3-9.1,8.3-13.9l-3.4-33.8
		c0,0-11.7-6-14.1-19.7c0,0-5.8-20.2-23-21.6H484.7z"/>
	<path class="st4" d="M436.3,351.9c0,0-1.7,5.5-1.7,19.2c0,0-3.8,6.5-10.6,6.5v9.9l8.9,2.2l14.1-1.4l-6.5-10.6l-2.1-13.7
		L436.3,351.9z"/>
</g>
<g id="white_layer">
	<path class="st6" d="M124.8,445.9c0,0,9.9-1.4,4.8,5.1l-4.8,7.2h6.3c0,0,8.8,1.7,10.5,8.6c0,0-20.9,2.1-27.8-7.5
		C113.8,459.2,110,454.4,124.8,445.9z"/>
	<path class="st6" d="M151.5,485.7c0,0,0.7,7.9,6.9,6.9c0,0,8.9,9.6,17.8,3.4c0,0,4.1-15.8,0-19.6c0,0-3.1-0.3-9.9,2.4
		c0,0,3.1-4.5,1.7-6.5C168,472.3,165.6,469.5,151.5,485.7z"/>
	<path class="st6" d="M91.8,122.7c0,0,4.5,11.7,25.4-5.1c0,0-6.9,11-4.1,22.3L97,145l12.7,2.7l-5.1,11h9.6l0.7,3.4l-18.9,13.7
		l8.6,1.4L97,188.5c0,0,0.7,4.5,3.4,3.8l7.9,0.1c0,0-11.7,32.5-3.8,43.2l6.9,5.5l-0.7,11.3h8.6c0,0,7.9,6.9,7.9,13.7l-6.5,5.1
		l9.6,2.7c0,0,6.9,3.4,0,5.8c0,0-20.2-3.4-10.6,6.9l0.3,9.9l13.3,12l3.5,12.4l-7.2-4.1l-9.3-4.8c0,0-4.8-5.8-6-12.4
		c0,0-3.6-8.6-8.1-11c0,0-13.4-11.3-17.2-28.1c0,0-4.5-34.7-6.5-48C82.6,212.6,63.3,155.3,91.8,122.7z"/>
	<path class="st6" d="M35,41.7c0,0,1.2,12.4-9.9,19.6c0,0-3.2,13.7,5,16.5c0,0,16.4,8.7,23,11.5l-2.7-7.4l7.2-3.1c0,0-3.9-7-3.8-7.5
		s14.4-12,13.7-16.5l0-14.1C67.5,40.7,42.8,39.3,35,41.7z"/>
	<path class="st6" d="M504.2,426.5c0,0-13.6,10.1-4.8,20.6c0,0,3.9,1.7,7.2,0c0,0,7.9,6.5,12.7,0.8l1.4-2.8c0,0,8.2,5.5,11.8-1.4
		c0,0,1-11-6.2-11c0,0-7.4-8.7-14.9-4.3C511.4,428.4,506.8,426.1,504.2,426.5z"/>
	<path class="st7" d="M428.6,385.1c0,0,2.6-7.5-4.6-7.5c0,0-7.4,2.2-8.6,8.7c0,0-6.5,4.6,2.1,9.4c0,0,10.8,3.4,22,0
		c0,0,7.2-4.8,7.5-7.5C446.9,388.2,445.7,383.4,428.6,385.1z"/>
</g>
</svg>
