<svg xmlns="http://www.w3.org/2000/svg" viewBox="0 0 340 495"><style>.st0{fill:#080808;} .st1{fill:#864324;} .st2{fill:#D7D8D6;} .st3{fill:#DFE1DF;} .st4{fill:#171717;} .st5{fill:#C6AFC4;}</style><g id="body"><path d="M127.2 409.5s32.3 10 40.3 5.5c0 0 1.9-32.8 5.8-40.6 0 0 22.2-48.6 33.2 30.5 0 0 2.5 17.6 7.5 28.6l52-31 41.7-55.1s2.8-167.8-15.2-184.8c0 0-10.5-67.6-37.5-79.8 0 0-10-71.2-85-62.7 0 0-81.3-4.5-84.9 75.5 0 0 1.6 26.8-6.4 44.2 0 0 2.7 5.3 13.3-2.7 0 0-8.5 8.7-6.9 34 0 0-1.5 15.3-12.3 26.7 0 0-16.8 31.3-16.8 51.3 0 0-24 7.3-22 52 0 0 10.7 46.7 2.7 84.7 0 0-36.6 36.8 28 53.8s46.4 17.9 69.5-5.6l6.3-16.8-13.3-7.7" class="st0"/><path d="M64.7 439.4l-18.2-13 18.2-6.9-9.1-4.5s-1.6-12.5 11.9-12.5c0 0 22.2-1.2 31.6 9.8l-34.4 27.1zm74 35.1s-3.2-53.1-11.4-65l30.8-4.6 27.6-54.9s13.4 5 16.9 118l-63.9 6.5zm108.3-187.3s18.5 14.8 23.5-11.7c0 0-2.8-15.5 12.8-30.5 0 0 7.7-11.6-8.6-13.5l-30.3 3 2.6 52.7zm-140-31.9s-11.9 28 84 57.6c96 29.6-84-57.6-84-57.6zm79.2-132.3s40.8 7.7 41.3 36.1l-14.5 30.4s-32.5-31.1-26.8-66.5zm-50.6 6.1s-22.1 2.4-21.6 17.9c0 0-.4 29.5 10.8 31l15.7-10.2-4.9-38.7z" class="st1"/><path d="M214 433.5l12-24s13.3-7.9 26.7-2.9l13.3 29.4s-33 13-52-2.5z" class="st2"/><path d="M146.5 61c.8 1 1.8 1.8 2.8 2.7 5.7 5.3 9.1 13 9.1 20.8 0 9.4-4.7 18.2-10.1 26s-11.5 15.1-15.2 23.8c-1 2.4-1.8 5-1.4 7.5.4 2.5 2 4.7 2.6 7.2.8 3.6-.4 7.2-1.1 10.8-2.1 10.8 6 15.2 15.9 13.8 4.9-.7 9.5-2.8 13.8-5.2 6.2 5.2 14.8 7.7 22.8 6.5 1.7-.2 3.3-.6 4.7-1.6 1.4-.9 2.3-2.4 3.1-3.8 4.8-9 3-20 0-29.8-2.9-9.5-7.2-18.9-14.3-25.9-1.8-1.8-3.8-3.4-5.4-5.4-2.2-2.9-3.3-6.6-4.1-10.2-2.5-11.6-2.4-23.7.3-35.3 1.1-4.8 2.7-9.6 2.8-14.6.1-3-.6-6.3-2.9-8.1-2.1-1.7-5.1-1.8-7.8-1.7-3.4 0-6.8.2-10 1.2s-6.2 3.1-7.7 6.1c-1.7 3.6-.9 8 .4 11.8.3 1 .7 2 1.3 2.9.1.1.2.3.4.5zM133.7 167.8s-13.7 4.2-16.7 29.8c0 0-6 28.3-11 17.3 0 0-6-16-14.3-9 0 0-22.3 11 15.3 49.3 0 0 62 34 94.7 67.7 0 0 7.7 29-5.3 33 0 0 12.7 23.7 38 10.7 0 0-23.7-27-6-51.7 0 0 30-37.7 37.7-41.3l-7-28 20-18s-3.3-18.7-29.3-12.7c0 0-18.3 6.7-14-26.3 0 0 4.7-20.3-11.3-10.3 0 0-15 10-21 3.7-.2 0-45.2 49-69.8-14.2zm-70 269.5c-1.2-5.3 5.4-14.3 8.4-17.7 4.4-5.1 10.5-8.9 17.2-9.9 1.7-.3 3.4-.4 5.1 0 2.7.7 4.9 2.5 6.9 4.4 2.9 2.6 5.9 5.4 7.2 9.1 1.7 4.6.6 9.7-.7 14.4-.5 2.1-1.2 4.2-2.7 5.7-1.4 1.3-3.3 1.9-5.2 2.4-5.3 1.5-10.7 2.8-16.2 2.5-7.1-.4-14.2-3.6-19-8.8-.5-.6-.9-1.3-1-2.1zm75.3 40.2c-1.1-4.4.5-10.5 2-14.4 1.8-4.5 5.1-8.6 9.4-10.7 4.5-2.2 9.8-2.2 14.5-3.9 5.3-1.9 9.8-6 15.3-6.6 5.6-.7 11.2 2.5 14.7 6.9s5.4 9.9 6.7 15.4c.7 3.1 1.4 6.2 1 9.3-.3 3.1-1.8 6.3-4.4 8-1.7 1.1-3.8 1.6-5.9 2-6.8 1.3-13.7 2.2-20.7 2.7-7.2.6-14.5.7-21.5-.8-3.9-.8-8.9-2.6-10.7-6.6-.1-.4-.2-.8-.4-1.3z" class="st3"/><path d="M163.9 159.1c-11.2-.2-20.4-9.8-16.6-21 .8-2.4 2.1-4.8 4.1-6.4 2.4-1.8 5.5-2.3 8.5-2.5 6.1-.4 12.8.5 17.1 4.9 4.1 4.2 4.9 11.2 2.1 16.5-2.8 5.2-8.7 8.5-14.6 8.6-.2-.1-.4-.1-.6-.1z" class="st4"/><path d="M227.5 120v14.5s13 11 13.5 7.5 5-22.5-13.5-22zm-46.8-34s-2.2-10.5 7.3-13c0 0 5.3 10.8-7.3 13zm-26.7 3s-3-13-17.5-13c0 0 3.5 16.1 17.5 13z" class="st1"/><path d="M163 168s-16.6 6-26.5 2.3c0 0 8.8 19.4 33.5 21.4 0 0 23-3.2 24.2-24.8 0-.1-27.1 9.1-31.2 1.1z" class="st5"/></g><g id="paw"><path d="M234.3 366.7s8.6 6.1 22.4 26.2l59.1 30.1s7.2-42.5-9.8-79.5c0 0-27.3-41-64.2-32.5 0 0-25 36.3-7.5 55.7z" class="st1"/><path d="M256.8 392.8c.8 2.1 1.8 4.3 1.9 6.5s-.8 4.7-2.8 5.8c-1 .6-2.3.7-3.2 1.4-3.7 2.7-.9 8.9.5 11.9 2.3 5.1 4.7 10.1 7.2 15 4.3 8.5 9.1 17 16.4 23.1 4.7 3.9 11.3 6.8 17 4.4 3.3-1.4 5.8-4.3 7.9-7.2 8.2-11 15-24 14-37.6-10.7.7-21.1-4.3-29.2-11.3-4.4-3.8-8.3-8.2-13.4-11.2-4.9-2.8-11.4-3.9-16.3-.8z" class="st3"/></g></svg>