<svg xmlns="http://www.w3.org/2000/svg" xmlns:xlink="http://www.w3.org/1999/xlink" viewBox="0 0 256 512" enable-background="new 0 0 256 512"><style type="text/css">.st0{fill:#373731;} .st1{fill:#403C3D;} .st2{fill:#B7BABB;} .st3{fill:#B2B5B6;} .st4{fill:#B9BBBC;} .st5{fill:#F7F7F7;} .st6{fill:#DFE1DF;} .st7{display:none;} .st8{fill:#C78C61;} .st9{fill:#C38355;} .st10{fill:#C88E65;} .st11{fill:#9E5F2C;}</style><g id="white_layer"><path class="st0" d="M60.1 149.4l2.7 3.5v2.8l4.9.7 1.3 3.3 1.6 6.8s-.8-14.1.7 16.1l7 2.9 7.8 8.5 7.9-3.8 5.3 1.7-1.3-5.7s2.4-8.3 5.8-12.1v-4.8h1.2v-3.7l-.7-2.3 3.7 4.9 1.7-6.2s39.6-8.2 52.8-19.4l15.9 10.2s4.3 3.9 4.5 12.7v9.4l1.5 7.1s4.3-3.1 12.2-9.8l1.2-7.4 1.4 1.1.6.5h4.3l9.6 8.4 6 7.7h4.8l-2.3-1s2.9-.1 2.3-.5c-.7-.4-2.3-1.5-2.3-1.5s2.4-15.9-3.6-18.5c0 0-5.9-6.4-3.3-18.8 0 0 5.5-20-1.3-33.4 0 0 .8-8.4-4.3-12 0 0-12.7-15.5-24.2-14.2 0 0-3.2-2.3-3.7-2.3s-3.2 1.1-3.2 1.1-12.6-2.9-20.7.3c0 0-6.8.2-9.5-1.5h-4v3s-7 2.4-8.8 2c0 0-6.6-4.7-14.4-.3l-2.3-.5 1.1-1.7h-6.4l-4.5-1.1-4.3-4.1s-3.1-6-6-6c0 0-3.5-4.7-2.8-7 0 0-7.4-6.1-12.4-13.2 0 0-5.6-14.4-10.7-14.6 0 0-6.6-4.4-23.9-1.9 0 0-5 1-5 5.2 0 0-1.2 2.2-4.3 4.2-3.1 2-2.7 6.2-2.7 6.2l6.1 12.1s7.7 8.2 7.7 9l.5 6.8-3.4 13.7 6.8 43.6 5.4 13.8z"/><path class="st1" d="M22.9 52.2s5.5-3.1 4.5-8c0 0-6.2-1.6-6.4.9 0-.1-1.9 1.2 1.9 7.1z"/><path class="st0" d="M209.8 97l8.4 10.7 3.6 7.8s.3 4.5 2.9 6.1c0 0 6.3 4.7 6.9 8l3.2 15.6s1.6 2.1 0 7.8l.7 7.8h-2.9v4.3l-3.2-2.2-5.8-3.2s-9.1-7.8-6.4-28.6"/><path class="st2" d="M72.3 164.9s0 10.8-.5 12.5c0 0-.9 2.9 0 8 0 0 .7 5.2-.4 7.3l-3.6 7.2s-3.9 0-6.3 1.7v4.6l2.5 2.2 4.5 1.1s7.3.5 9.1-4.7c0 0 2.7-6.1 3.5-10.2l.2-.8 1.4-5.7-1.3-2.4s-2.1-1.8-1.8-2.2c.3-.4 1.7-2.1 1.7-2.1l-2.1-13.1-.9-2.1s-2.8.5-2.8.2l-.9-3.7-2.3 2.2z"/><path class="st3" d="M81.2 193.7s3.6 5.1 1.4 9.1c0 0-2.2 6.1-6.3 10.2l2.6 3.9 2.9 4.2s8.8-.8 9.6-3.1c0 0 2.9-8 2.8-11.6v-3.2s7.5 1.1 8.4 2.5c0 0-.9-2.4-4.4-4.1-3.5-1.8 0-.5 0-.5l2-.6-1.1-1.9-.4-1.2 1-.4-.6-1.3-.9-1.5 3.1-.5-2.2-1.9-1.5-1.6-2.3-2.9-2.2.5-2-1-.9 2.2-1.8 1.6-3 1-1.3-1-1.6-2.4-1.3 5.5z"/><path class="st2" d="M81.8 194l-.2-1.7h.6v-1.5h.7l-.3-1.2.3-.9-.3-.5-1.8 2.3v3.2z"/><path class="st3" d="M59.9 142.5l5.3 3.1h2l2.6 2.7h1.6l-.9-4.1.3-1.2 1.2-1.8-2.2-3.1-.5-2.9.1-5.7-2.9 2.9-3.7-.9h-1.4l-2.3 2-.4 5.4zM49 75.6s2.5-4.8-2.6-6.3c0 0-8.2-3.5-9-4.9 0 0-2.5-1.4-3.5-1.9l-1.7-4.6 2.4-6.3 4.9-2.5s3.3 1 3.4 3.1c0 0-1 2.7.7 3.5 0 0 6 2.2 7.2 8.4 0 0 1.9 3.5.5 9 0 0 2.1 2.1 7.6.5l-2.7 3.8-5.2 2.6-2.9-2.1.9-2.3zM44.7 39.8s3.8 1.4 4.1-1.9c0 0-.9-2.1-3.7-.5 0 0-1.1.2-.4 2.4zM54.7 59.8v3.5s.5.6 2.4-.9c.1.1 2.7-3.6-2.4-2.6z"/><path class="st4" d="M162.6 142.7s3.9 9.8 18.3 13.5c0 0 1.7.9 1.7 3.2 0 0 5.7 6.1 17.2 7.1 0 0-10.5-8.6-13-9.6l-3.2-1.5-.4-2.7-3.9-.2-2.8-4.1-.4-3.4-1.9-.9-2.5-.2-3.5-1.5h-3l-2.6.3z"/><path class="st3" d="M202.2 166.5s12 9.6 9.8 20.3c0 0-1.3 6-2.7 7.7l4.6 4.6h5.6l1 2.1s3.2-3.6 3.2-5.4l-1.3-13.2s-4.5-2.3-5.5-7.7c0 0-2.3-7.9-9-8.4h-5.7zM183.3 164.9s-.7 2.1-.7 7.5c0 0-1.5 2.5-4.1 2.5v3.8l3.5.8 5.5-.5-2.5-4.1-.8-5.4-.9-4.6z"/><path class="st5" d="M61.8 201.6s3.9-.5 1.9 2l-1.9 2.8h2.4s3.4.7 4.1 3.3c0 0-8.2.8-10.8-2.9.1 0-1.4-1.9 4.3-5.2zM72.3 217.1s.3 3.1 2.7 2.7c0 0 3.5 3.7 7 1.3 0 0 1.6-6.2 0-7.6 0 0-1.2-.1-3.9.9 0 0 1.2-1.7.7-2.5-.1 0-1-1.1-6.5 5.2zM49 75.6s1.7 4.5 9.9-2c0 0-2.7 4.3-1.6 8.7l-6.3 2 4.9 1.1-2 4.3h3.7l.3 1.3-7.4 5.4 3.3.5-2.9 4.4s.3 1.7 1.3 1.5h3.1s-4.5 12.7-1.5 16.8l2.7 2.1-.3 4.4h3.3s3.1 2.7 3.1 5.4l-2.5 2 3.7 1.1s2.7 1.3 0 2.3c0 0-7.9-1.3-4.1 2.7l.1 3.9 5.2 4.7 1.4 4.8-2.8-1.6-3.6-1.9s-1.9-2.3-2.3-4.8c0 0-1.4-3.3-3.1-4.3 0 0-5.2-4.4-6.7-11 0 0-1.7-13.5-2.5-18.7 0-.1-7.5-22.4 3.6-35.1zM26.9 44s.5 4.8-3.9 7.6c0 0-1.3 5.4 1.9 6.4 0 0 6.4 3.4 9 4.5l-1.1-2.9 2.8-1.2s-1.5-2.7-1.5-2.9c.1-.2 5.6-4.7 5.4-6.4v-5.5s-9.6-.5-12.6.4zM209.8 194s-5.3 3.9-1.9 8c0 0 1.5.7 2.8 0 0 0 3.1 2.5 4.9.3l.5-1.1s3.2 2.1 4.6-.5c0 0 .4-4.3-2.4-4.3 0 0-2.9-3.4-5.8-1.7.1 0-1.7-.8-2.7-.7z"/><path class="st6" d="M180.3 177.9s1-2.9-1.8-2.9c0 0-2.9.9-3.3 3.4 0 0-2.5 1.8.8 3.7 0 0 4.2 1.3 8.6 0 0 0 2.8-1.9 2.9-2.9-.1-.1-.5-2-7.2-1.3z"/><path class="st0" d="M60.1 405.4l2.7 3.5v2.8l4.9.7 1.3 3.3 1.6 6.8s-.8-14.1.7 16.1l7 2.9 7.8 8.5 7.9-3.8 5.3 1.7-1.3-5.7s2.4-8.3 5.8-12.1v-4.8h1.2v-3.7l-.7-2.3 3.7 4.9 1.7-6.2s39.6-8.2 52.8-19.4l15.9 10.2s4.3 3.9 4.5 12.7v9.4l1.5 7.1s4.3-3.1 12.2-9.8l1.2-7.4 1.4 1.1.6.5h4.3l9.6 8.4 6 7.7h4.8l-2.3-1s2.9-.1 2.3-.5c-.7-.4-2.3-1.5-2.3-1.5s2.4-15.9-3.6-18.5c0 0-5.9-6.4-3.3-18.8 0 0 5.5-20-1.3-33.4 0 0 .8-8.4-4.3-12 0 0-12.7-15.5-24.2-14.2 0 0-3.2-2.3-3.7-2.3s-3.2 1.1-3.2 1.1-12.6-2.9-20.7.3c0 0-6.8.2-9.5-1.5h-4v3s-7 2.4-8.8 2c0 0-6.6-4.7-14.4-.3l-2.3-.5 1.1-1.7h-6.4l-4.5-1.1-4.3-4.1s-3.1-6-6-6c0 0-3.5-4.7-2.8-7 0 0-7.4-6.1-12.4-13.2 0 0-5.6-14.4-10.7-14.6 0 0-6.6-4.4-23.9-1.9 0 0-5 1-5 5.2 0 0-1.2 2.2-4.3 4.2-3.1 2-2.7 6.2-2.7 6.2l6.1 12.1s7.7 8.2 7.7 9l.5 6.8-3.4 13.7 6.8 43.6 5.4 13.8z"/><path class="st1" d="M22.9 308.2s5.5-3.1 4.5-8c0 0-6.2-1.6-6.4.9 0-.1-1.9 1.2 1.9 7.1z"/><path class="st0" d="M209.8 353l8.4 10.7 3.6 7.8s.3 4.5 2.9 6.1c0 0 6.3 4.7 6.9 8l3.2 15.6s1.6 2.1 0 7.8l.7 7.8h-2.9v4.3l-3.2-2.2-5.8-3.2s-9.1-7.8-6.4-28.6"/><path class="st2" d="M72.3 420.9s0 10.8-.5 12.5c0 0-.9 2.9 0 8 0 0 .7 5.2-.4 7.3l-3.6 7.2s-3.9 0-6.3 1.7v4.6l2.5 2.2 4.5 1.1s7.3.5 9.1-4.7c0 0 2.7-6.1 3.5-10.2l.2-.8 1.4-5.7-1.3-2.4s-2.1-1.8-1.8-2.2l1.7-2.1-2.1-13.1-.9-2.1s-2.8.5-2.8.2-.9-3.7-.9-3.7l-2.3 2.2z"/><path class="st3" d="M81.2 449.7s3.6 5.1 1.4 9.1c0 0-2.2 6.1-6.3 10.2l2.6 3.9 2.9 4.2s8.8-.8 9.6-3.1c0 0 2.9-8 2.8-11.6v-3.2s7.5 1.1 8.4 2.5c0 0-.9-2.4-4.4-4.1-3.5-1.8 0-.5 0-.5l2-.6-1.1-1.9-.4-1.2 1-.4-.6-1.3-.9-1.5 3.1-.5-2.2-1.9-1.5-1.6-2.3-2.9-2.2.5-2-1-.9 2.2-1.8 1.6-3 1-1.3-1-1.6-2.4-1.3 5.5z"/><path class="st2" d="M81.8 450l-.2-1.7h.6v-1.5h.7l-.3-1.2.3-.9-.3-.5-1.8 2.3v3.2z"/><path class="st3" d="M59.9 398.5l5.3 3.1h2l2.6 2.7h1.6l-.9-4.1.3-1.2 1.2-1.8-2.2-3.1-.5-2.9.1-5.7-2.9 2.9-3.7-.9h-1.4l-2.3 2-.4 5.4zM49 331.6s2.5-4.8-2.6-6.3c0 0-8.2-3.5-9-4.9 0 0-2.5-1.4-3.5-1.9l-1.7-4.6 2.4-6.3 4.9-2.5s3.3 1 3.4 3.1c0 0-1 2.7.7 3.5 0 0 6 2.2 7.2 8.4 0 0 1.9 3.5.5 9 0 0 2.1 2.1 7.6.5l-2.7 3.8-5.2 2.6-2.9-2.1.9-2.3zM44.7 295.8s3.8 1.4 4.1-1.9c0 0-.9-2.1-3.7-.5 0 0-1.1.2-.4 2.4zM54.7 315.8v3.5s.5.6 2.4-.9c.1.1 2.7-3.6-2.4-2.6z"/><path class="st4" d="M162.6 398.7s3.9 9.8 18.3 13.5c0 0 1.7.9 1.7 3.2 0 0 5.7 6.1 17.2 7.1 0 0-10.5-8.6-13-9.6l-3.2-1.5-.4-2.7-3.9-.2-2.8-4.1-.4-3.4-1.9-.9-2.5-.2-3.5-1.5h-3l-2.6.3z"/><path class="st3" d="M202.2 422.5s12 9.6 9.8 20.3c0 0-1.3 6-2.7 7.7l4.6 4.6h5.6l1 2.1s3.2-3.6 3.2-5.4l-1.3-13.2s-4.5-2.3-5.5-7.7c0 0-2.3-7.9-9-8.4h-5.7zM183.3 420.9s-.7 2.1-.7 7.5c0 0-1.5 2.5-4.1 2.5v3.8l3.5.8 5.5-.5-2.5-4.1-.8-5.4-.9-4.6z"/><path class="st5" d="M61.8 457.6s3.9-.5 1.9 2l-1.9 2.8h2.4s3.4.7 4.1 3.3c0 0-8.2.8-10.8-2.9.1 0-1.4-1.9 4.3-5.2zM72.3 473.1s.3 3.1 2.7 2.7c0 0 3.5 3.7 7 1.3 0 0 1.6-6.2 0-7.6 0 0-1.2-.1-3.9.9 0 0 1.2-1.7.7-2.5-.1 0-1-1.1-6.5 5.2zM49 331.6s1.7 4.5 9.9-2c0 0-2.7 4.3-1.6 8.7l-6.3 2 4.9 1.1-2 4.3h3.7l.3 1.3-7.4 5.4 3.3.5-2.9 4.4s.3 1.7 1.3 1.5h3.1s-4.5 12.7-1.5 16.8l2.7 2.1-.3 4.4h3.3s3.1 2.7 3.1 5.4l-2.5 2 3.7 1.1s2.7 1.3 0 2.3c0 0-7.9-1.3-4.1 2.7l.1 3.9 5.2 4.7 1.4 4.8-2.8-1.6-3.6-1.9s-1.9-2.3-2.3-4.8c0 0-1.4-3.3-3.1-4.3 0 0-5.2-4.4-6.7-11 0 0-1.7-13.5-2.5-18.7 0-.1-7.5-22.4 3.6-35.1zM26.9 300s.5 4.8-3.9 7.6c0 0-1.3 5.4 1.9 6.4 0 0 6.4 3.4 9 4.5l-1.1-2.9 2.8-1.2s-1.5-2.7-1.5-2.9c.1-.2 5.6-4.7 5.4-6.4v-5.5s-9.6-.5-12.6.4zM209.8 450s-5.3 3.9-1.9 8c0 0 1.5.7 2.8 0 0 0 3.1 2.5 4.9.3l.5-1.1s3.2 2.1 4.6-.5c0 0 .4-4.3-2.4-4.3 0 0-2.9-3.4-5.8-1.7.1 0-1.7-.8-2.7-.7z"/><path class="st6" d="M180.3 433.9s1-2.9-1.8-2.9c0 0-2.9.9-3.3 3.4 0 0-2.5 1.8.8 3.7 0 0 4.2 1.3 8.6 0 0 0 2.8-1.9 2.9-2.9-.1-.1-.5-2-7.2-1.3z"/></g><image width="872" height="608" xlink:href="BCBDEB86BA21BE2D.png" transform="matrix(.5 0 0 .5 -88.287 -28.825)" overflow="visible" id="Layer_1" class="st7"/><g id="caramel_layer"><path class="st5" d="M61.8 201.6s3.9-.5 1.9 2l-1.9 2.8h2.4s3.4.7 4.1 3.3c0 0-8.2.8-10.8-2.9.1 0-1.4-1.9 4.3-5.2zM72.3 217.1s.3 3.1 2.7 2.7c0 0 3.5 3.7 7 1.3 0 0 1.6-6.2 0-7.6 0 0-1.2-.1-3.9.9 0 0 1.2-1.7.7-2.5-.1 0-1-1.1-6.5 5.2zM49 75.6s1.7 4.5 9.9-2c0 0-2.7 4.3-1.6 8.7l-6.3 2 4.9 1.1-2 4.3h3.7l.3 1.3-7.4 5.4 3.3.5-2.9 4.4s.3 1.7 1.3 1.5h3.1s-4.5 12.7-1.5 16.8l2.7 2.1-.3 4.4h3.3s3.1 2.7 3.1 5.4l-2.5 2 3.7 1.1s2.7 1.3 0 2.3c0 0-7.9-1.3-4.1 2.7l.1 3.9 5.2 4.7 1.4 4.8-2.8-1.6-3.6-1.9s-1.9-2.3-2.3-4.8c0 0-1.4-3.3-3.1-4.3 0 0-5.2-4.4-6.7-11 0 0-1.7-13.5-2.5-18.7 0-.1-7.5-22.4 3.6-35.1zM26.9 44s.5 4.8-3.9 7.6c0 0-1.3 5.4 1.9 6.4 0 0 6.4 3.4 9 4.5l-1.1-2.9 2.8-1.2s-1.5-2.7-1.5-2.9c.1-.2 5.6-4.7 5.4-6.4v-5.5s-9.6-.5-12.6.4zM209.8 194s-5.3 3.9-1.9 8c0 0 1.5.7 2.8 0 0 0 3.1 2.5 4.9.3l.5-1.1s3.2 2.1 4.6-.5c0 0 .4-4.3-2.4-4.3 0 0-2.9-3.4-5.8-1.7.1 0-1.7-.8-2.7-.7z"/><path class="st6" d="M180.3 177.9s1-2.9-1.8-2.9c0 0-2.9.9-3.3 3.4 0 0-2.5 1.8.8 3.7 0 0 4.2 1.3 8.6 0 0 0 2.8-1.9 2.9-2.9-.1-.1-.5-2-7.2-1.3z"/><path class="st0" d="M60.1 149.4l2.7 3.5v2.8l4.9.7 1.3 3.3 1.6 6.8s-.8-14.1.7 16.1l7 2.9 7.8 8.5 7.9-3.8 5.3 1.7-1.3-5.7s2.4-8.3 5.8-12.1v-4.8h1.2v-3.7l-.7-2.3 3.7 4.9 1.7-6.2s39.6-8.2 52.8-19.4l15.9 10.2s4.3 3.9 4.5 12.7v9.4l1.5 7.1s4.3-3.1 12.2-9.8l1.2-7.4 1.4 1.1.6.5h4.3l9.6 8.4 6 7.7h4.8l-2.3-1s2.9-.1 2.3-.5l-2.3-1.5s2.4-15.9-3.6-18.5c0 0-5.9-6.4-3.3-18.8 0 0 5.5-20-1.3-33.4 0 0 .8-8.4-4.3-12 0 0-12.7-15.5-24.2-14.2 0 0-3.2-2.3-3.7-2.3s-3.2 1.1-3.2 1.1-12.6-2.9-20.7.3c0 0-6.8.2-9.5-1.5h-4v3s-7 2.4-8.8 2c0 0-6.6-4.7-14.4-.3l-2.3-.5 1.1-1.7h-6.4l-4.5-1.1-4.3-4.1s-3.1-6-6-6c0 0-3.5-4.7-2.8-7 0 0-7.4-6.1-12.4-13.2 0 0-5.6-14.4-10.7-14.6 0 0-6.6-4.4-23.9-1.9 0 0-5 1-5 5.2 0 0-1.2 2.2-4.3 4.2-3.1 2-2.7 6.2-2.7 6.2l6.1 12.1s7.7 8.2 7.7 9l.5 6.8-3.4 13.7 6.8 43.6 5.4 13.8z"/><path class="st1" d="M22.9 52.2s5.5-3.1 4.5-8c0 0-6.2-1.6-6.4.9 0-.1-1.9 1.2 1.9 7.1z"/><path class="st0" d="M209.8 97l8.4 10.7 3.6 7.8s.3 4.5 2.9 6.1c0 0 6.3 4.7 6.9 8l3.2 15.6s1.6 2.1 0 7.8l.7 7.8h-2.9v4.3l-3.2-2.2-5.8-3.2s-9.1-7.8-6.4-28.6"/><path class="st8" d="M72.3 164.9s0 10.8-.5 12.5c0 0-.9 2.9 0 8 0 0 .7 5.2-.4 7.3l-3.6 7.2s-3.9 0-6.3 1.7v4.6l2.5 2.2 4.5 1.1s7.3.5 9.1-4.7c0 0 2.7-6.1 3.5-10.2l.2-.8 1.4-5.7-1.3-2.4s-2.1-1.8-1.8-2.2c.3-.4 1.7-2.1 1.7-2.1l-2.1-13.1-.9-2.1s-2.8.5-2.8.2-.9-3.7-.9-3.7l-2.3 2.2z"/><path class="st9" d="M81.2 193.7s3.6 5.1 1.4 9.1c0 0-2.2 6.1-6.3 10.2l2.6 3.9 2.9 4.2s8.8-.8 9.6-3.1c0 0 2.9-8 2.8-11.6v-3.2s7.5 1.1 8.4 2.5c0 0-.9-2.4-4.4-4.1-3.5-1.8 0-.5 0-.5l2-.6-1.1-1.9-.4-1.2 1-.4-.6-1.3-.9-1.5 3.1-.5-2.2-1.9-1.5-1.6-2.3-2.9-2.2.5-2-1-.9 2.2-1.8 1.6-3 1-1.3-1-1.6-2.4-1.3 5.5z"/><path class="st8" d="M81.8 194l-.2-1.7h.6v-1.5h.7l-.3-1.2.3-.9-.3-.5-1.8 2.3v3.2z"/><path class="st9" d="M59.9 142.5l5.3 3.1h2l2.6 2.7h1.6l-.9-4.1.3-1.2 1.2-1.8-2.2-3.1-.5-2.9.1-5.7-2.9 2.9-3.7-.9h-1.4l-2.3 2-.4 5.4zM49 75.6s2.5-4.8-2.6-6.3c0 0-8.2-3.5-9-4.9 0 0-2.5-1.4-3.5-1.9l-1.7-4.6 2.4-6.3 4.9-2.5s3.3 1 3.4 3.1c0 0-1 2.7.7 3.5 0 0 6 2.2 7.2 8.4 0 0 1.9 3.5.5 9 0 0 2.1 2.1 7.6.5l-2.7 3.8-5.2 2.6-2.9-2.1.9-2.3zM44.7 39.8s3.8 1.4 4.1-1.9c0 0-.9-2.1-3.7-.5 0 0-1.1.2-.4 2.4zM54.7 59.8v3.5s.5.6 2.4-.9c.1.1 2.7-3.6-2.4-2.6z"/><path class="st10" d="M162.6 142.7s3.9 9.8 18.3 13.5c0 0 1.7.9 1.7 3.2 0 0 5.7 6.1 17.2 7.1 0 0-10.5-8.6-13-9.6l-3.2-1.5-.4-2.7-3.9-.2-2.8-4.1-.4-3.4-1.9-.9-2.5-.2-3.5-1.5h-3l-2.6.3z"/><path class="st9" d="M202.2 166.5s12 9.6 9.8 20.3c0 0-1.3 6-2.7 7.7l4.6 4.6h5.6l1 2.1s3.2-3.6 3.2-5.4l-1.3-13.2s-4.5-2.3-5.5-7.7c0 0-2.3-7.9-9-8.4h-5.7z"/><path class="st11" d="M183.3 164.9s-.7 2.1-.7 7.5c0 0-1.5 2.5-4.1 2.5v3.8l3.5.8 5.5-.5-2.5-4.1-.8-5.4-.9-4.6z"/></g></svg>