<svg xmlns="http://www.w3.org/2000/svg" viewBox="352 0 256 560" enable-background="new 352 0 256 560"><g><path fill="#373731" d="M405.7 163.4l3 3.8v3.1l5.4.8 1.4 3.6 1.8 7.4s-.9-15.4.8 17.6l7.7 3.2 8.5 9.3 8.6-4.2 5.8 1.9-1.4-6.2s2.6-9.1 6.3-13.2v-5.2h1.3v-4l-.8-2.5 4 5.4 1.9-6.8s43.3-9 57.8-21.2l17.4 11.2s4.7 4.3 4.9 13.9v10.3l1.6 7.8s4.7-3.4 13.3-10.7l1.3-8.1 1.5 1.2.7.5h4.7l10.5 9.2 6.6 8.4h5.2l-2.5-1.1s3.2-.1 2.5-.5c-.8-.4-2.5-1.6-2.5-1.6s2.6-17.4-3.9-20.2c0 0-6.5-7-3.6-20.6 0 0 6-21.9-1.4-36.5 0 0 .9-9.2-4.7-13.1 0 0-13.9-17-26.5-15.5 0 0-3.5-2.5-4-2.5l-3.5 1.2s-13.8-3.2-22.6.3c0 0-7.4.2-10.4-1.6h-4.4v2.8s-7.7 2.6-9.6 2.2c0 0-7.2-5.1-15.8-.3l-2.5-.5 1.2-1.9h-7l-4.9-1.2-4.7-4.5s-3.4-6.6-6.6-6.6c0 0-3.8-5.1-3.1-7.7 0 0-8.1-6.7-13.6-14.4 0 0-6.1-15.7-11.7-16 0 0-7.2-4.8-26.1-2.1 0 0-5.5 1.1-5.5 5.7 0 0-1.3 2.4-4.7 4.6l-3 6.8 6.7 13.2s8.4 9 8.4 9.8l.5 7.4-3.7 15 7.4 47.7 6 15.2z"/><path fill="#403C3D" d="M365 57.1s6-3.4 4.9-8.8c0 0-6.8-1.7-7 1 .1-.1-2 1.3 2.1 7.8z"/><path fill="#373731" d="M569.5 106.1l9.2 11.7 3.9 8.5s.3 4.9 3.2 6.7c0 0 6.9 5.1 7.5 8.8l3.5 17.1s1.8 2.3 0 8.5l.8 8.5h-3.2v4.7l-3.5-2.4-6.3-3.5s-10-8.5-7-31.3"/><path fill="#B7BABB" d="M419.1 180.4s0 11.8-.5 13.7c0 0-1 3.2 0 8.8 0 0 .8 5.7-.4 8l-3.9 7.9s-4.3 0-6.9 1.9v5l2.7 2.4 4.9 1.2s8 .5 10-5.1c0 0 3-6.7 3.8-11.2l.2-.9 1.5-6.2-1.4-2.6s-2.3-2-2-2.4l1.9-2.3-2.3-14.3-1-2.3s-3.1.5-3.1.2l-1-4-2.5 2.2z"/><path fill="#B2B5B6" d="M428.8 211.9s3.9 5.6 1.5 10c0 0-2.4 6.7-6.9 11.2l2.8 4.3 3.2 4.6s9.6-.9 10.5-3.4c0 0 3.2-8.8 3.1-12.7v-3.5s8.2 1.2 9.2 2.7c0 0-1-2.6-4.8-4.5-3.8-2 0-.5 0-.5l2.2-.7-1.2-2.1-.4-1.3 1.1-.4-.7-1.4-1-1.6 3.4-.5-2.4-2.1-1.6-1.8-2.5-3.2-2.4.5-2.2-1.1-1 2.4-2 1.8-3.3 1.1-1.4-1.1-1.8-2.6c0-.2-1.4 5.9-1.4 5.9z"/><path fill="#B7BABB" d="M429.5 212.2l-.2-1.9h.7v-1.6h.8l-.3-1.3.3-1-.3-.5-2 2.5v3.5l1 .3z"/><path fill="#B2B5B6" d="M405.5 155.9l5.8 3.4h2.2l2.8 3h1.8l-1-4.5.3-1.3 1.3-2-2.4-3.4-.5-3.2.1-6.2-3.2 3.2-4-1h-1.5l-2.5 2.2-.4 5.9 1.2 3.9zm-11.9-73.2s2.7-5.3-2.8-6.9c0 0-9-3.8-9.8-5.4 0 0-2.7-1.5-3.8-2.1l-1.9-5 2.6-6.9 5.4-2.7s3.6 1.1 3.7 3.4c0 0-1.1 3 .8 3.8 0 0 6.6 2.4 7.9 9.2 0 0 2.1 3.8.5 9.8 0 0 2.3 2.3 8.3.5l-3 4.2-5.7 2.8-3.2-2.3c0 .1 1-2.4 1-2.4zm-4.7-39.2s4.2 1.5 4.5-2.1c0 0-1-2.3-4-.5-.1 0-1.3.2-.5 2.6zm10.9 21.9v3.8s.5.7 2.6-1c.2.2 3-3.9-2.6-2.8z"/><path fill="#B9BBBC" d="M517.8 156.1s4.3 10.7 20 14.8c0 0 1.9 1 1.9 3.5 0 0 6.2 6.7 18.8 7.8 0 0-11.5-9.4-14.2-10.5l-3.5-1.6-.4-3-4.3-.2-3.1-4.5-.4-3.7-2.1-1-2.7-.2-3.8-1.6h-3.3l-2.9.2z"/><path fill="#B2B5B6" d="M561.2 182.1s13.1 10.5 10.7 22.2c0 0-1.4 6.6-3 8.4l5 5h6.1l1.1 2.3s3.5-3.9 3.5-5.9l-1.4-14.4s-4.9-2.5-6-8.4c0 0-2.5-8.6-9.8-9.2h-6.2zm-20.7-1.7s-.8 2.3-.8 8.2c0 0-1.6 2.7-4.5 2.7v4.2l3.8.9 6-.5-2.7-4.5-.9-5.9-.9-5.1z"/><path fill="#F7F7F7" d="M407.6 220.5s4.3-.5 2.1 2.2l-2.1 3.1h2.6s3.7.8 4.5 3.6c0 0-9 .9-11.8-3.2.1 0-1.5-2.1 4.7-5.7zm11.5 17s.3 3.4 3 3c0 0 3.8 4 7.7 1.4 0 0 1.8-6.8 0-8.3 0 0-1.3-.1-4.3 1 0 0 1.3-1.9.8-2.7-.2-.1-1.2-1.3-7.2 5.6zm-25.5-154.8s1.9 4.9 10.8-2.2c0 0-3 4.7-1.8 9.5l-6.9 2.2 5.4 1.2-2.2 4.7h4l.3 1.4-8.1 5.9 3.6.5-3.2 4.8s.3 1.9 1.4 1.6h3.4s-4.9 13.9-1.6 18.4l3 2.3-.3 4.8h3.6s3.4 3 3.4 5.9l-2.7 2.2 4 1.2s3 1.4 0 2.5c0 0-8.6-1.4-4.5 3l.1 4.3 5.7 5.1 1.5 5.2-3.1-1.8-3.9-2.1s-2.1-2.5-2.5-5.2c0 0-1.5-3.6-3.4-4.7 0 0-5.7-4.8-7.3-12 0 0-1.9-14.8-2.7-20.5.1.1-8.1-24.3 4-38.2zm-24.2-34.6s.5 5.2-4.3 8.3c0 0-1.4 5.9 2.1 7 0 0 7 3.7 9.8 4.9l-1.2-3.2 3.1-1.3s-1.6-3-1.6-3.2c.1-.2 6.1-5.1 5.9-7v-6c0 .1-10.5-.5-13.8.5zm200.1 164.1s-5.8 4.3-2.1 8.8c0 0 1.6.8 3.1 0 0 0 3.4 2.7 5.4.3l.5-1.2s3.5 2.3 5-.5c0 0 .4-4.7-2.6-4.7 0 0-3.2-3.7-6.3-1.9 0 0-1.9-.9-3-.8z"/><path fill="#DFE1DF" d="M537.2 194.6s1.1-3.2-2-3.2c0 0-3.2 1-3.6 3.7 0 0-2.7 2 .9 4 0 0 4.6 1.4 9.4 0 0 0 3.1-2.1 3.2-3.2-.1 0-.6-2.1-7.9-1.3z"/><path fill="#373731" d="M405.7 443.4l3 3.8v3.1l5.4.8 1.4 3.6 1.8 7.4s-.9-15.4.8 17.6l7.7 3.2 8.5 9.3 8.6-4.2 5.8 1.9-1.4-6.2s2.6-9.1 6.3-13.2v-5.2h1.3v-4l-.8-2.5 4 5.4 1.9-6.8s43.3-9 57.8-21.2l17.4 11.2s4.7 4.3 4.9 13.9v10.3l1.6 7.8s4.7-3.4 13.3-10.7l1.3-8.1 1.5 1.2.7.5h4.7l10.5 9.2 6.6 8.4h5.2l-2.5-1.1s3.2-.1 2.5-.5c-.8-.4-2.5-1.6-2.5-1.6s2.6-17.4-3.9-20.2c0 0-6.5-7-3.6-20.6 0 0 6-21.9-1.4-36.5 0 0 .9-9.2-4.7-13.1 0 0-13.9-17-26.5-15.5 0 0-3.5-2.5-4-2.5l-3.5 1.2s-13.8-3.2-22.6.3c0 0-7.4.2-10.4-1.6h-4.4v3.3s-7.7 2.6-9.6 2.2c0 0-7.2-5.1-15.8-.3l-2.5-.5 1.2-1.9h-7l-4.9-1.2-4.7-4.5s-3.4-6.6-6.6-6.6c0 0-3.8-5.1-3.1-7.7 0 0-8.1-6.7-13.6-14.4 0 0-6.1-15.8-11.7-16 0 0-7.2-4.8-26.1-2.1 0 0-5.5 1.1-5.5 5.7 0 0-1.3 2.4-4.7 4.6l-3 6.8 6.7 13.2s8.4 9 8.4 9.8l.5 7.4-3.7 15 7.4 47.7 6 14.7z"/><path fill="#403C3D" d="M365 337.1s6-3.4 4.9-8.8c0 0-6.8-1.8-7 1 .1-.1-2 1.3 2.1 7.8z"/><path fill="#373731" d="M569.5 386.1l9.2 11.7 3.9 8.5s.3 4.9 3.2 6.7c0 0 6.9 5.1 7.5 8.8l3.5 17.1s1.8 2.3 0 8.5l.8 8.5h-3.2v4.7l-3.5-2.4-6.3-3.5s-10-8.5-7-31.3"/><path fill="#B7BABB" d="M419.1 460.4s0 11.8-.5 13.7c0 0-1 3.2 0 8.8 0 0 .8 5.7-.4 8l-3.9 7.9s-4.3 0-6.9 1.9v5l2.7 2.4 4.9 1.2s8 .5 10-5.1c0 0 3-6.7 3.8-11.2l.2-.9 1.5-6.2-1.4-2.6s-2.3-2-2-2.4l1.9-2.3-2.3-14.3-1-2.3s-3.1.5-3.1.2l-1-4-2.5 2.2z"/><path fill="#B2B5B6" d="M428.8 491.9s3.9 5.6 1.5 10c0 0-2.4 6.7-6.9 11.2l2.8 4.3 3.2 4.6s9.6-.9 10.5-3.4c0 0 3.2-8.8 3.1-12.7v-3.5s8.2 1.2 9.2 2.7c0 0-1-2.6-4.8-4.5-3.8-2 0-.5 0-.5l2.2-.7-1.2-2.1-.4-1.3 1.1-.4-.7-1.4-1-1.6 3.4-.5-2.4-2.1-1.6-1.8-2.5-3.2-2.4.5-2.2-1.1-1 2.4-2 1.8-3.3 1.1-1.4-1.1-1.8-2.6-1.4 5.9z"/><path fill="#B7BABB" d="M429.5 492.2l-.2-1.9h.7v-1.6h.8l-.3-1.3.3-1-.3-.5-2 2.5v3.5l1 .3z"/><path fill="#B2B5B6" d="M405.5 435.9l5.8 3.4h2.2l2.8 3h1.8l-1-4.5.3-1.3 1.3-2-2.4-3.4-.5-3.2.1-6.2-3.2 3.2-4-1h-1.5l-2.5 2.2-.4 5.9 1.2 3.9zm-11.9-73.2s2.7-5.2-2.8-6.9c0 0-9-3.8-9.8-5.4 0 0-2.7-1.5-3.8-2.1l-1.9-5 2.6-6.9 5.4-2.7s3.6 1.1 3.7 3.4c0 0-1.1 3 .8 3.8 0 0 6.6 2.4 7.9 9.2 0 0 2.1 3.8.5 9.8 0 0 2.3 2.3 8.3.5l-3 4.2-5.7 2.8-3.2-2.3 1-2.4zm-4.7-39.2s4.2 1.5 4.5-2.1c0 0-1-2.3-4-.5-.1 0-1.3.2-.5 2.6zm10.9 21.9v3.8s.5.7 2.6-1c.2.2 3-3.9-2.6-2.8z"/><path fill="#B9BBBC" d="M517.8 436.1s4.3 10.7 20 14.8c0 0 1.9 1 1.9 3.5 0 0 6.2 6.7 18.8 7.8 0 0-11.5-9.4-14.2-10.5l-3.5-1.6-.4-3-4.3-.2-3.1-4.5-.4-3.7-2.1-1-2.7-.2-3.8-1.6h-3.3l-2.9.2z"/><path fill="#B2B5B6" d="M561.2 462.1s13.1 10.5 10.7 22.2c0 0-1.4 6.6-3 8.4l5 5h6.1l1.1 2.3s3.5-3.9 3.5-5.9l-1.4-14.4s-4.9-2.5-6-8.4c0 0-2.5-8.6-9.8-9.2h-6.2zm-20.7-1.7s-.8 2.3-.8 8.2c0 0-1.6 2.7-4.5 2.7v4.2l3.8.9 6-.5-2.7-4.5-.9-5.9-.9-5.1z"/><path fill="#F7F7F7" d="M407.6 500.5s4.3-.5 2.1 2.2l-2.1 3.1h2.6s3.7.8 4.5 3.6c0 0-9 .9-11.8-3.2.1 0-1.5-2.1 4.7-5.7zm11.5 17s.3 3.4 3 3c0 0 3.8 4 7.7 1.4 0 0 1.8-6.8 0-8.3 0 0-1.3-.1-4.3 1 0 0 1.3-1.9.8-2.7-.2-.1-1.2-1.3-7.2 5.6zm-25.5-154.8s1.9 4.9 10.8-2.2c0 0-3 4.7-1.8 9.5l-6.9 2.2 5.4 1.2-2.2 4.7h4l.3 1.4-8.1 5.9 3.6.5-3.2 4.8s.3 1.9 1.4 1.6h3.4s-4.9 13.9-1.6 18.4l3 2.3-.3 4.8h3.6s3.4 3 3.4 5.9l-2.7 2.2 4 1.2s3 1.4 0 2.5c0 0-8.6-1.4-4.5 3l.1 4.3 5.7 5.1 1.5 5.2-3.1-1.8-3.9-2.1s-2.1-2.5-2.5-5.2c0 0-1.5-3.6-3.4-4.7 0 0-5.7-4.8-7.3-12 0 0-1.9-14.8-2.7-20.5.1.1-8.1-24.3 4-38.2zm-24.2-34.6s.5 5.2-4.3 8.3c0 0-1.4 5.9 2.1 7 0 0 7 3.7 9.8 4.9l-1.2-3.2 3.1-1.3s-1.6-3-1.6-3.2c.1-.2 6.1-5.1 5.9-7v-6c0 .1-10.5-.5-13.8.5zm200.1 164.1s-5.8 4.3-2.1 8.8c0 0 1.6.8 3.1 0 0 0 3.4 2.7 5.4.3l.5-1.2s3.5 2.3 5-.5c0 0 .4-4.7-2.6-4.7 0 0-3.2-3.7-6.3-1.9 0 0-1.9-.9-3-.8z"/><path fill="#DFE1DF" d="M537.2 474.6s1.1-3.2-2-3.2c0 0-3.2 1-3.6 3.7 0 0-2.7 2 .9 4 0 0 4.6 1.4 9.4 0 0 0 3.1-2.1 3.2-3.2-.1 0-.6-2.1-7.9-1.3z"/></g><g><path fill="#DFE1DF" d="M537.2 194.6s1.1-3.2-2-3.2c0 0-3.2 1-3.6 3.7 0 0-2.7 2 .9 4 0 0 4.6 1.4 9.4 0 0 0 3.1-2.1 3.2-3.2-.1 0-.6-2.1-7.9-1.3z"/><path fill="#373731" d="M405.7 163.4l3 3.8v3.1l5.4.8 1.4 3.6 1.8 7.4s-.9-15.4.8 17.6l7.7 3.2 8.5 9.3 8.6-4.2 5.8 1.9-1.4-6.2s2.6-9.1 6.3-13.2v-5.2h1.3v-4l-.8-2.5 4 5.4 1.9-6.8s43.3-9 57.8-21.2l17.4 11.2s4.7 4.3 4.9 13.9v10.3l1.6 7.8s4.7-3.4 13.3-10.7l1.3-8.1 1.5 1.2.7.5h4.7l10.5 9.2 6.6 8.4h5.2l-2.5-1.1s3.2-.1 2.5-.5l-2.5-1.6s2.6-17.4-3.9-20.2c0 0-6.5-7-3.6-20.6 0 0 6-21.9-1.4-36.5 0 0 .9-9.2-4.7-13.1 0 0-13.9-17-26.5-15.5 0 0-3.5-2.5-4-2.5l-3.5 1.2s-13.8-3.2-22.6.3c0 0-7.4.2-10.4-1.6h-4.4v2.8s-7.7 2.6-9.6 2.2c0 0-7.2-5.1-15.8-.3l-2.5-.5 1.2-1.9h-7l-4.9-1.2-4.7-4.5s-3.4-6.6-6.6-6.6c0 0-3.8-5.1-3.1-7.7 0 0-8.1-6.7-13.6-14.4 0 0-6.1-15.7-11.7-16 0 0-7.2-4.8-26.1-2.1 0 0-5.5 1.1-5.5 5.7 0 0-1.3 2.4-4.7 4.6l-3 6.8 6.7 13.2s8.4 9 8.4 9.8l.5 7.4-3.7 15 7.4 47.7 6 15.2z"/><path fill="#403C3D" d="M365 57.1s6-3.4 4.9-8.8c0 0-6.8-1.7-7 1 .1-.1-2 1.3 2.1 7.8z"/><path fill="#373731" d="M569.5 106.1l9.2 11.7 3.9 8.5s.3 4.9 3.2 6.7c0 0 6.9 5.1 7.5 8.8l3.5 17.1s1.8 2.3 0 8.5l.8 8.5h-3.2v4.7l-3.5-2.4-6.3-3.5s-10-8.5-7-31.3"/><path fill="#C78C61" d="M419.1 180.4s0 11.8-.5 13.7c0 0-1 3.2 0 8.8 0 0 .8 5.7-.4 8l-3.9 7.9s-4.3 0-6.9 1.9v5l2.7 2.4 4.9 1.2s8 .5 10-5.1c0 0 3-6.7 3.8-11.2l.2-.9 1.5-6.2-1.4-2.6s-2.3-2-2-2.4l1.9-2.3-2.3-14.3-1-2.3s-3.1.5-3.1.2l-1-4-2.5 2.2z"/><path fill="#C38355" d="M428.8 211.9s3.9 5.6 1.5 10c0 0-2.4 6.7-6.9 11.2l2.8 4.3 3.2 4.6s9.6-.9 10.5-3.4c0 0 3.2-8.8 3.1-12.7v-3.5s8.2 1.2 9.2 2.7c0 0-1-2.6-4.8-4.5-3.8-2 0-.5 0-.5l2.2-.7-1.2-2.1-.4-1.3 1.1-.4-.7-1.4-1-1.6 3.4-.5-2.4-2.1-1.6-1.8-2.5-3.2-2.4.5-2.2-1.1-1 2.4-2 1.8-3.3 1.1-1.4-1.1-1.8-2.6c0-.2-1.4 5.9-1.4 5.9z"/><path fill="#C78C61" d="M429.5 212.2l-.2-1.9h.7v-1.6h.8l-.3-1.3.3-1-.3-.5-2 2.5v3.5l1 .3z"/><path fill="#C38355" d="M405.5 155.9l5.8 3.4h2.2l2.8 3h1.8l-1-4.5.3-1.3 1.3-2-2.4-3.4-.5-3.2.1-6.2-3.2 3.2-4-1h-1.5l-2.5 2.2-.4 5.9 1.2 3.9zm-11.9-73.2s2.7-5.3-2.8-6.9c0 0-9-3.8-9.8-5.4 0 0-2.7-1.5-3.8-2.1l-1.9-5 2.6-6.9 5.4-2.7s3.6 1.1 3.7 3.4c0 0-1.1 3 .8 3.8 0 0 6.6 2.4 7.9 9.2 0 0 2.1 3.8.5 9.8 0 0 2.3 2.3 8.3.5l-3 4.2-5.7 2.8-3.2-2.3c0 .1 1-2.4 1-2.4zm-4.7-39.2s4.2 1.5 4.5-2.1c0 0-1-2.3-4-.5-.1 0-1.3.2-.5 2.6zm10.9 21.9v3.8s.5.7 2.6-1c.2.2 3-3.9-2.6-2.8z"/><path fill="#C88E65" d="M517.8 156.1s4.3 10.7 20 14.8c0 0 1.9 1 1.9 3.5 0 0 6.2 6.7 18.8 7.8 0 0-11.5-9.4-14.2-10.5l-3.5-1.6-.4-3-4.3-.2-3.1-4.5-.4-3.7-2.1-1-2.7-.2-3.8-1.6h-3.3l-2.9.2z"/><path fill="#C38355" d="M561.2 182.1s13.1 10.5 10.7 22.2c0 0-1.4 6.6-3 8.4l5 5h6.1l1.1 2.3s3.5-3.9 3.5-5.9l-1.4-14.4s-4.9-2.5-6-8.4c0 0-2.5-8.6-9.8-9.2h-6.2z"/><path fill="#9E5F2C" d="M540.5 180.4s-.8 2.3-.8 8.2c0 0-1.6 2.7-4.5 2.7v4.2l3.8.9 6-.5-2.7-4.5-.9-5.9-.9-5.1z"/><path fill="#F7F7F7" d="M407.6 220.5s4.3-.5 2.1 2.2l-2.1 3.1h2.6s3.7.8 4.5 3.6c0 0-9 .9-11.8-3.2.1 0-1.5-2.1 4.7-5.7zm11.5 17s.3 3.4 3 3c0 0 3.8 4 7.7 1.4 0 0 1.8-6.8 0-8.3 0 0-1.3-.1-4.3 1 0 0 1.3-1.9.8-2.7-.2-.1-1.2-1.3-7.2 5.6zm-25.5-154.8s1.9 4.9 10.8-2.2c0 0-3 4.7-1.8 9.5l-6.9 2.2 5.4 1.2-2.2 4.7h4l.3 1.4-8.1 5.9 3.6.5-3.2 4.8s.3 1.9 1.4 1.6h3.4s-4.9 13.9-1.6 18.4l3 2.3-.3 4.8h3.6s3.4 3 3.4 5.9l-2.7 2.2 4 1.2s3 1.4 0 2.5c0 0-8.6-1.4-4.5 3l.1 4.3 5.7 5.1 1.5 5.2-3.1-1.8-3.9-2.1s-2.1-2.5-2.5-5.2c0 0-1.5-3.6-3.4-4.7 0 0-5.7-4.8-7.3-12 0 0-1.9-14.8-2.7-20.5.1.1-8.1-24.3 4-38.2zm-24.2-34.6s.5 5.2-4.3 8.3c0 0-1.4 5.9 2.1 7 0 0 7 3.7 9.8 4.9l-1.2-3.2 3.1-1.3s-1.6-3-1.6-3.2c.1-.2 6.1-5.1 5.9-7v-6c0 .1-10.5-.5-13.8.5zm200.1 164.1s-5.8 4.3-2.1 8.8c0 0 1.6.8 3.1 0 0 0 3.4 2.7 5.4.3l.5-1.2s3.5 2.3 5-.5c0 0 .4-4.7-2.6-4.7 0 0-3.2-3.7-6.3-1.9 0 0-1.9-.9-3-.8z"/></g></svg>