<?xml version="1.0" encoding="utf-8"?>
<!-- Generator: Adobe Illustrator 18.1.1, SVG Export Plug-In . SVG Version: 6.00 Build 0)  -->
<svg version="1.1" id="Layer_1" xmlns="http://www.w3.org/2000/svg" xmlns:xlink="http://www.w3.org/1999/xlink" x="0px" y="0px"
	 viewBox="352 0 256 560" enable-background="new 352 0 256 560" xml:space="preserve">
<g id="white_layer">
	<path fill="#373731" d="M405.7,163.4l3,3.8v3.1l5.4,0.8l1.4,3.6l1.8,7.4c0,0-0.9-15.4,0.8,17.6l7.7,3.2l8.5,9.3l8.6-4.2l5.8,1.9
		l-1.4-6.2c0,0,2.6-9.1,6.3-13.2v-5.2h1.3v-4l-0.8-2.5l4,5.4l1.9-6.8c0,0,43.3-9,57.8-21.2l17.4,11.2c0,0,4.7,4.3,4.9,13.9v10.3
		l1.6,7.8c0,0,4.7-3.4,13.3-10.7l1.3-8.1l1.5,1.2l0.7,0.5h4.7l10.5,9.2l6.6,8.4h5.2l-2.5-1.1c0,0,3.2-0.1,2.5-0.5
		c-0.8-0.4-2.5-1.6-2.5-1.6s2.6-17.4-3.9-20.2c0,0-6.5-7-3.6-20.6c0,0,6-21.9-1.4-36.5c0,0,0.9-9.2-4.7-13.1c0,0-13.9-17-26.5-15.5
		c0,0-3.5-2.5-4-2.5l-3.5,1.2c0,0-13.8-3.2-22.6,0.3c0,0-7.4,0.2-10.4-1.6H498V91c0,0-7.7,2.6-9.6,2.2c0,0-7.2-5.1-15.8-0.3
		l-2.5-0.5l1.2-1.9h-7l-4.9-1.2l-4.7-4.5c0,0-3.4-6.6-6.6-6.6c0,0-3.8-5.1-3.1-7.7c0,0-8.1-6.7-13.6-14.4c0,0-6.1-15.7-11.7-16
		c0,0-7.2-4.8-26.1-2.1c0,0-5.5,1.1-5.5,5.7c0,0-1.3,2.4-4.7,4.6s-3,6.8-3,6.8l6.7,13.2c0,0,8.4,9,8.4,9.8l0.5,7.4l-3.7,15l7.4,47.7
		L405.7,163.4L405.7,163.4z"/>
	<path fill="#403C3D" d="M365,57.1c0,0,6-3.4,4.9-8.8c0,0-6.8-1.7-7,1C363,49.2,360.9,50.6,365,57.1z"/>
	<path fill="#373731" d="M569.5,106.1l9.2,11.7l3.9,8.5c0,0,0.3,4.9,3.2,6.7c0,0,6.9,5.1,7.5,8.8l3.5,17.1c0,0,1.8,2.3,0,8.5
		l0.8,8.5h-3.2v4.7l-3.5-2.4l-6.3-3.5c0,0-10-8.5-7-31.3"/>
	<path fill="#B7BABB" d="M419.1,180.4c0,0,0,11.8-0.5,13.7c0,0-1,3.2,0,8.8c0,0,0.8,5.7-0.4,8l-3.9,7.9c0,0-4.3,0-6.9,1.9v5l2.7,2.4
		l4.9,1.2c0,0,8,0.5,10-5.1c0,0,3-6.7,3.8-11.2l0.2-0.9l1.5-6.2l-1.4-2.6c0,0-2.3-2-2-2.4s1.9-2.3,1.9-2.3l-2.3-14.3l-1-2.3
		c0,0-3.1,0.5-3.1,0.2l-1-4L419.1,180.4L419.1,180.4z"/>
	<path fill="#B2B5B6" d="M428.8,211.9c0,0,3.9,5.6,1.5,10c0,0-2.4,6.7-6.9,11.2l2.8,4.3l3.2,4.6c0,0,9.6-0.9,10.5-3.4
		c0,0,3.2-8.8,3.1-12.7v-3.5c0,0,8.2,1.2,9.2,2.7c0,0-1-2.6-4.8-4.5c-3.8-2,0-0.5,0-0.5l2.2-0.7l-1.2-2.1L448,216l1.1-0.4l-0.7-1.4
		l-1-1.6l3.4-0.5l-2.4-2.1l-1.6-1.8l-2.5-3.2l-2.4,0.5l-2.2-1.1l-1,2.4l-2,1.8l-3.3,1.1l-1.4-1.1l-1.8-2.6
		C430.2,205.8,428.8,211.9,428.8,211.9z"/>
	<path fill="#B7BABB" d="M429.5,212.2l-0.2-1.9h0.7v-1.6h0.8l-0.3-1.3l0.3-1l-0.3-0.5l-2,2.5v3.5L429.5,212.2z"/>
	<path fill="#B2B5B6" d="M405.5,155.9l5.8,3.4h2.2l2.8,3h1.8l-1-4.5l0.3-1.3l1.3-2l-2.4-3.4l-0.5-3.2l0.1-6.2l-3.2,3.2l-4-1h-1.5
		l-2.5,2.2l-0.4,5.9L405.5,155.9z M393.6,82.7c0,0,2.7-5.3-2.8-6.9c0,0-9-3.8-9.8-5.4c0,0-2.7-1.5-3.8-2.1l-1.9-5l2.6-6.9l5.4-2.7
		c0,0,3.6,1.1,3.7,3.4c0,0-1.1,3,0.8,3.8c0,0,6.6,2.4,7.9,9.2c0,0,2.1,3.8,0.5,9.8c0,0,2.3,2.3,8.3,0.5l-3,4.2l-5.7,2.8l-3.2-2.3
		C392.6,85.2,393.6,82.7,393.6,82.7z M388.9,43.5c0,0,4.2,1.5,4.5-2.1c0,0-1-2.3-4-0.5C389.3,40.9,388.1,41.1,388.9,43.5z
		 M399.8,65.4v3.8c0,0,0.5,0.7,2.6-1C402.6,68.4,405.4,64.3,399.8,65.4z"/>
	<path fill="#B9BBBC" d="M517.8,156.1c0,0,4.3,10.7,20,14.8c0,0,1.9,1,1.9,3.5c0,0,6.2,6.7,18.8,7.8c0,0-11.5-9.4-14.2-10.5
		l-3.5-1.6l-0.4-3l-4.3-0.2l-3.1-4.5l-0.4-3.7l-2.1-1l-2.7-0.2l-3.8-1.6h-3.3L517.8,156.1L517.8,156.1z"/>
	<path fill="#B2B5B6" d="M561.2,182.1c0,0,13.1,10.5,10.7,22.2c0,0-1.4,6.6-3,8.4l5,5h6.1l1.1,2.3c0,0,3.5-3.9,3.5-5.9l-1.4-14.4
		c0,0-4.9-2.5-6-8.4c0,0-2.5-8.6-9.8-9.2L561.2,182.1L561.2,182.1z M540.5,180.4c0,0-0.8,2.3-0.8,8.2c0,0-1.6,2.7-4.5,2.7v4.2
		l3.8,0.9l6-0.5l-2.7-4.5l-0.9-5.9L540.5,180.4z"/>
	<path fill="#F7F7F7" d="M407.6,220.5c0,0,4.3-0.5,2.1,2.2l-2.1,3.1h2.6c0,0,3.7,0.8,4.5,3.6c0,0-9,0.9-11.8-3.2
		C403,226.2,401.4,224.1,407.6,220.5L407.6,220.5z M419.1,237.5c0,0,0.3,3.4,3,3c0,0,3.8,4,7.7,1.4c0,0,1.8-6.8,0-8.3
		c0,0-1.3-0.1-4.3,1c0,0,1.3-1.9,0.8-2.7C426.1,231.8,425.1,230.6,419.1,237.5L419.1,237.5z M393.6,82.7c0,0,1.9,4.9,10.8-2.2
		c0,0-3,4.7-1.8,9.5l-6.9,2.2l5.4,1.2l-2.2,4.7h4l0.3,1.4l-8.1,5.9l3.6,0.5l-3.2,4.8c0,0,0.3,1.9,1.4,1.6h3.4c0,0-4.9,13.9-1.6,18.4
		l3,2.3l-0.3,4.8h3.6c0,0,3.4,3,3.4,5.9l-2.7,2.2l4,1.2c0,0,3,1.4,0,2.5c0,0-8.6-1.4-4.5,3l0.1,4.3l5.7,5.1l1.5,5.2l-3.1-1.8
		l-3.9-2.1c0,0-2.1-2.5-2.5-5.2c0,0-1.5-3.6-3.4-4.7c0,0-5.7-4.8-7.3-12c0,0-1.9-14.8-2.7-20.5C389.7,121,381.5,96.6,393.6,82.7z
		 M369.4,48.1c0,0,0.5,5.2-4.3,8.3c0,0-1.4,5.9,2.1,7c0,0,7,3.7,9.8,4.9l-1.2-3.2l3.1-1.3c0,0-1.6-3-1.6-3.2c0.1-0.2,6.1-5.1,5.9-7
		v-6C383.2,47.7,372.7,47.1,369.4,48.1z M569.5,212.2c0,0-5.8,4.3-2.1,8.8c0,0,1.6,0.8,3.1,0c0,0,3.4,2.7,5.4,0.3l0.5-1.2
		c0,0,3.5,2.3,5-0.5c0,0,0.4-4.7-2.6-4.7c0,0-3.2-3.7-6.3-1.9C572.5,213,570.6,212.1,569.5,212.2L569.5,212.2z"/>
	<path fill="#DFE1DF" d="M537.2,194.6c0,0,1.1-3.2-2-3.2c0,0-3.2,1-3.6,3.7c0,0-2.7,2,0.9,4c0,0,4.6,1.4,9.4,0c0,0,3.1-2.1,3.2-3.2
		C545,195.9,544.5,193.8,537.2,194.6z"/>
	<path fill="#373731" d="M405.7,443.4l3,3.8v3.1l5.4,0.8l1.4,3.6l1.8,7.4c0,0-0.9-15.4,0.8,17.6l7.7,3.2l8.5,9.3l8.6-4.2l5.8,1.9
		l-1.4-6.2c0,0,2.6-9.1,6.3-13.2v-5.2h1.3v-4l-0.8-2.5l4,5.4l1.9-6.8c0,0,43.3-9,57.8-21.2l17.4,11.2c0,0,4.7,4.3,4.9,13.9v10.3
		l1.6,7.8c0,0,4.7-3.4,13.3-10.7l1.3-8.1l1.5,1.2l0.7,0.5h4.7l10.5,9.2l6.6,8.4h5.2l-2.5-1.1c0,0,3.2-0.1,2.5-0.5
		c-0.8-0.4-2.5-1.6-2.5-1.6s2.6-17.4-3.9-20.2c0,0-6.5-7-3.6-20.6c0,0,6-21.9-1.4-36.5c0,0,0.9-9.2-4.7-13.1c0,0-13.9-17-26.5-15.5
		c0,0-3.5-2.5-4-2.5l-3.5,1.2c0,0-13.8-3.2-22.6,0.3c0,0-7.4,0.2-10.4-1.6H498v3.3c0,0-7.7,2.6-9.6,2.2c0,0-7.2-5.1-15.8-0.3
		l-2.5-0.5l1.2-1.9h-7l-4.9-1.2l-4.7-4.5c0,0-3.4-6.6-6.6-6.6c0,0-3.8-5.1-3.1-7.7c0,0-8.1-6.7-13.6-14.4c0,0-6.1-15.8-11.7-16
		c0,0-7.2-4.8-26.1-2.1c0,0-5.5,1.1-5.5,5.7c0,0-1.3,2.4-4.7,4.6s-3,6.8-3,6.8l6.7,13.2c0,0,8.4,9,8.4,9.8l0.5,7.4l-3.7,15l7.4,47.7
		L405.7,443.4L405.7,443.4z"/>
	<path fill="#403C3D" d="M365,337.1c0,0,6-3.4,4.9-8.8c0,0-6.8-1.8-7,1C363,329.2,360.9,330.6,365,337.1z"/>
	<path fill="#373731" d="M569.5,386.1l9.2,11.7l3.9,8.5c0,0,0.3,4.9,3.2,6.7c0,0,6.9,5.1,7.5,8.8l3.5,17.1c0,0,1.8,2.3,0,8.5
		l0.8,8.5h-3.2v4.7l-3.5-2.4l-6.3-3.5c0,0-10-8.5-7-31.3"/>
	<path fill="#B7BABB" d="M419.1,460.4c0,0,0,11.8-0.5,13.7c0,0-1,3.2,0,8.8c0,0,0.8,5.7-0.4,8l-3.9,7.9c0,0-4.3,0-6.9,1.9v5l2.7,2.4
		l4.9,1.2c0,0,8,0.5,10-5.1c0,0,3-6.7,3.8-11.2l0.2-0.9l1.5-6.2l-1.4-2.6c0,0-2.3-2-2-2.4l1.9-2.3l-2.3-14.3l-1-2.3
		c0,0-3.1,0.5-3.1,0.2l-1-4L419.1,460.4L419.1,460.4z"/>
	<path fill="#B2B5B6" d="M428.8,491.9c0,0,3.9,5.6,1.5,10c0,0-2.4,6.7-6.9,11.2l2.8,4.3l3.2,4.6c0,0,9.6-0.9,10.5-3.4
		c0,0,3.2-8.8,3.1-12.7v-3.5c0,0,8.2,1.2,9.2,2.7c0,0-1-2.6-4.8-4.5c-3.8-2,0-0.5,0-0.5l2.2-0.7l-1.2-2.1L448,496l1.1-0.4l-0.7-1.4
		l-1-1.6l3.4-0.5l-2.4-2.1l-1.6-1.8l-2.5-3.2l-2.4,0.5l-2.2-1.1l-1,2.4l-2,1.8l-3.3,1.1l-1.4-1.1l-1.8-2.6L428.8,491.9L428.8,491.9z
		"/>
	<path fill="#B7BABB" d="M429.5,492.2l-0.2-1.9h0.7v-1.6h0.8l-0.3-1.3l0.3-1l-0.3-0.5l-2,2.5v3.5L429.5,492.2z"/>
	<path fill="#B2B5B6" d="M405.5,435.9l5.8,3.4h2.2l2.8,3h1.8l-1-4.5l0.3-1.3l1.3-2l-2.4-3.4l-0.5-3.2l0.1-6.2l-3.2,3.2l-4-1h-1.5
		l-2.5,2.2l-0.4,5.9L405.5,435.9z M393.6,362.7c0,0,2.7-5.2-2.8-6.9c0,0-9-3.8-9.8-5.4c0,0-2.7-1.5-3.8-2.1l-1.9-5l2.6-6.9l5.4-2.7
		c0,0,3.6,1.1,3.7,3.4c0,0-1.1,3,0.8,3.8c0,0,6.6,2.4,7.9,9.2c0,0,2.1,3.8,0.5,9.8c0,0,2.3,2.3,8.3,0.5l-3,4.2l-5.7,2.8l-3.2-2.3
		L393.6,362.7L393.6,362.7z M388.9,323.5c0,0,4.2,1.5,4.5-2.1c0,0-1-2.3-4-0.5C389.3,320.9,388.1,321.1,388.9,323.5z M399.8,345.4
		v3.8c0,0,0.5,0.7,2.6-1C402.6,348.4,405.4,344.3,399.8,345.4z"/>
	<path fill="#B9BBBC" d="M517.8,436.1c0,0,4.3,10.7,20,14.8c0,0,1.9,1,1.9,3.5c0,0,6.2,6.7,18.8,7.8c0,0-11.5-9.4-14.2-10.5
		l-3.5-1.6l-0.4-3l-4.3-0.2l-3.1-4.5l-0.4-3.7l-2.1-1l-2.7-0.2l-3.8-1.6h-3.3L517.8,436.1L517.8,436.1z"/>
	<path fill="#B2B5B6" d="M561.2,462.1c0,0,13.1,10.5,10.7,22.2c0,0-1.4,6.6-3,8.4l5,5h6.1l1.1,2.3c0,0,3.5-3.9,3.5-5.9l-1.4-14.4
		c0,0-4.9-2.5-6-8.4c0,0-2.5-8.6-9.8-9.2H561.2L561.2,462.1z M540.5,460.4c0,0-0.8,2.3-0.8,8.2c0,0-1.6,2.7-4.5,2.7v4.2l3.8,0.9
		l6-0.5l-2.7-4.5l-0.9-5.9L540.5,460.4L540.5,460.4z"/>
	<path fill="#F7F7F7" d="M407.6,500.5c0,0,4.3-0.5,2.1,2.2l-2.1,3.1h2.6c0,0,3.7,0.8,4.5,3.6c0,0-9,0.9-11.8-3.2
		C403,506.2,401.4,504.1,407.6,500.5L407.6,500.5z M419.1,517.5c0,0,0.3,3.4,3,3c0,0,3.8,4,7.7,1.4c0,0,1.8-6.8,0-8.3
		c0,0-1.3-0.1-4.3,1c0,0,1.3-1.9,0.8-2.7C426.1,511.8,425.1,510.6,419.1,517.5z M393.6,362.7c0,0,1.9,4.9,10.8-2.2
		c0,0-3,4.7-1.8,9.5l-6.9,2.2l5.4,1.2l-2.2,4.7h4l0.3,1.4l-8.1,5.9l3.6,0.5l-3.2,4.8c0,0,0.3,1.9,1.4,1.6h3.4c0,0-4.9,13.9-1.6,18.4
		l3,2.3l-0.3,4.8h3.6c0,0,3.4,3,3.4,5.9l-2.7,2.2l4,1.2c0,0,3,1.4,0,2.5c0,0-8.6-1.4-4.5,3l0.1,4.3l5.7,5.1l1.5,5.2l-3.1-1.8
		l-3.9-2.1c0,0-2.1-2.5-2.5-5.2c0,0-1.5-3.6-3.4-4.7c0,0-5.7-4.8-7.3-12c0,0-1.9-14.8-2.7-20.5C389.7,401,381.5,376.6,393.6,362.7
		L393.6,362.7z M369.4,328.1c0,0,0.5,5.2-4.3,8.3c0,0-1.4,5.9,2.1,7c0,0,7,3.7,9.8,4.9l-1.2-3.2l3.1-1.3c0,0-1.6-3-1.6-3.2
		c0.1-0.2,6.1-5.1,5.9-7v-6C383.2,327.7,372.7,327.1,369.4,328.1z M569.5,492.2c0,0-5.8,4.3-2.1,8.8c0,0,1.6,0.8,3.1,0
		c0,0,3.4,2.7,5.4,0.3l0.5-1.2c0,0,3.5,2.3,5-0.5c0,0,0.4-4.7-2.6-4.7c0,0-3.2-3.7-6.3-1.9C572.5,493,570.6,492.1,569.5,492.2
		L569.5,492.2z"/>
	<path fill="#DFE1DF" d="M537.2,474.6c0,0,1.1-3.2-2-3.2c0,0-3.2,1-3.6,3.7c0,0-2.7,2,0.9,4c0,0,4.6,1.4,9.4,0c0,0,3.1-2.1,3.2-3.2
		C545,475.9,544.5,473.8,537.2,474.6L537.2,474.6z"/>
</g>
<g id="caramel_layer">
	<path fill="#DFE1DF" d="M537.2,194.6c0,0,1.1-3.2-2-3.2c0,0-3.2,1-3.6,3.7c0,0-2.7,2,0.9,4c0,0,4.6,1.4,9.4,0c0,0,3.1-2.1,3.2-3.2
		C545,195.9,544.5,193.8,537.2,194.6z"/>
	<path fill="#373731" d="M405.7,163.4l3,3.8v3.1l5.4,0.8l1.4,3.6l1.8,7.4c0,0-0.9-15.4,0.8,17.6l7.7,3.2l8.5,9.3l8.6-4.2l5.8,1.9
		l-1.4-6.2c0,0,2.6-9.1,6.3-13.2v-5.2h1.3v-4l-0.8-2.5l4,5.4l1.9-6.8c0,0,43.3-9,57.8-21.2l17.4,11.2c0,0,4.7,4.3,4.9,13.9v10.3
		l1.6,7.8c0,0,4.7-3.4,13.3-10.7l1.3-8.1l1.5,1.2l0.7,0.5h4.7l10.5,9.2l6.6,8.4h5.2l-2.5-1.1c0,0,3.2-0.1,2.5-0.5l-2.5-1.6
		c0,0,2.6-17.4-3.9-20.2c0,0-6.5-7-3.6-20.6c0,0,6-21.9-1.4-36.5c0,0,0.9-9.2-4.7-13.1c0,0-13.9-17-26.5-15.5c0,0-3.5-2.5-4-2.5
		l-3.5,1.2c0,0-13.8-3.2-22.6,0.3c0,0-7.4,0.2-10.4-1.6H498V91c0,0-7.7,2.6-9.6,2.2c0,0-7.2-5.1-15.8-0.3l-2.5-0.5l1.2-1.9h-7
		l-4.9-1.2l-4.7-4.5c0,0-3.4-6.6-6.6-6.6c0,0-3.8-5.1-3.1-7.7c0,0-8.1-6.7-13.6-14.4c0,0-6.1-15.7-11.7-16c0,0-7.2-4.8-26.1-2.1
		c0,0-5.5,1.1-5.5,5.7c0,0-1.3,2.4-4.7,4.6s-3,6.8-3,6.8l6.7,13.2c0,0,8.4,9,8.4,9.8l0.5,7.4l-3.7,15l7.4,47.7L405.7,163.4
		L405.7,163.4z"/>
	<path fill="#403C3D" d="M365,57.1c0,0,6-3.4,4.9-8.8c0,0-6.8-1.7-7,1C363,49.2,360.9,50.6,365,57.1z"/>
	<path fill="#373731" d="M569.5,106.1l9.2,11.7l3.9,8.5c0,0,0.3,4.9,3.2,6.7c0,0,6.9,5.1,7.5,8.8l3.5,17.1c0,0,1.8,2.3,0,8.5
		l0.8,8.5h-3.2v4.7l-3.5-2.4l-6.3-3.5c0,0-10-8.5-7-31.3"/>
	<path fill="#C78C61" d="M419.1,180.4c0,0,0,11.8-0.5,13.7c0,0-1,3.2,0,8.8c0,0,0.8,5.7-0.4,8l-3.9,7.9c0,0-4.3,0-6.9,1.9v5l2.7,2.4
		l4.9,1.2c0,0,8,0.5,10-5.1c0,0,3-6.7,3.8-11.2l0.2-0.9l1.5-6.2l-1.4-2.6c0,0-2.3-2-2-2.4s1.9-2.3,1.9-2.3l-2.3-14.3l-1-2.3
		c0,0-3.1,0.5-3.1,0.2l-1-4L419.1,180.4L419.1,180.4z"/>
	<path fill="#C38355" d="M428.8,211.9c0,0,3.9,5.6,1.5,10c0,0-2.4,6.7-6.9,11.2l2.8,4.3l3.2,4.6c0,0,9.6-0.9,10.5-3.4
		c0,0,3.2-8.8,3.1-12.7v-3.5c0,0,8.2,1.2,9.2,2.7c0,0-1-2.6-4.8-4.5c-3.8-2,0-0.5,0-0.5l2.2-0.7l-1.2-2.1L448,216l1.1-0.4l-0.7-1.4
		l-1-1.6l3.4-0.5l-2.4-2.1l-1.6-1.8l-2.5-3.2l-2.4,0.5l-2.2-1.1l-1,2.4l-2,1.8l-3.3,1.1l-1.4-1.1l-1.8-2.6
		C430.2,205.8,428.8,211.9,428.8,211.9z"/>
	<path fill="#C78C61" d="M429.5,212.2l-0.2-1.9h0.7v-1.6h0.8l-0.3-1.3l0.3-1l-0.3-0.5l-2,2.5v3.5L429.5,212.2z"/>
	<path fill="#C38355" d="M405.5,155.9l5.8,3.4h2.2l2.8,3h1.8l-1-4.5l0.3-1.3l1.3-2l-2.4-3.4l-0.5-3.2l0.1-6.2l-3.2,3.2l-4-1h-1.5
		l-2.5,2.2l-0.4,5.9L405.5,155.9z M393.6,82.7c0,0,2.7-5.3-2.8-6.9c0,0-9-3.8-9.8-5.4c0,0-2.7-1.5-3.8-2.1l-1.9-5l2.6-6.9l5.4-2.7
		c0,0,3.6,1.1,3.7,3.4c0,0-1.1,3,0.8,3.8c0,0,6.6,2.4,7.9,9.2c0,0,2.1,3.8,0.5,9.8c0,0,2.3,2.3,8.3,0.5l-3,4.2l-5.7,2.8l-3.2-2.3
		C392.6,85.2,393.6,82.7,393.6,82.7z M388.9,43.5c0,0,4.2,1.5,4.5-2.1c0,0-1-2.3-4-0.5C389.3,40.9,388.1,41.1,388.9,43.5z
		 M399.8,65.4v3.8c0,0,0.5,0.7,2.6-1C402.6,68.4,405.4,64.3,399.8,65.4z"/>
	<path fill="#C88E65" d="M517.8,156.1c0,0,4.3,10.7,20,14.8c0,0,1.9,1,1.9,3.5c0,0,6.2,6.7,18.8,7.8c0,0-11.5-9.4-14.2-10.5
		l-3.5-1.6l-0.4-3l-4.3-0.2l-3.1-4.5l-0.4-3.7l-2.1-1l-2.7-0.2l-3.8-1.6h-3.3L517.8,156.1L517.8,156.1z"/>
	<path fill="#C38355" d="M561.2,182.1c0,0,13.1,10.5,10.7,22.2c0,0-1.4,6.6-3,8.4l5,5h6.1l1.1,2.3c0,0,3.5-3.9,3.5-5.9l-1.4-14.4
		c0,0-4.9-2.5-6-8.4c0,0-2.5-8.6-9.8-9.2L561.2,182.1L561.2,182.1z"/>
	<path fill="#9E5F2C" d="M540.5,180.4c0,0-0.8,2.3-0.8,8.2c0,0-1.6,2.7-4.5,2.7v4.2l3.8,0.9l6-0.5l-2.7-4.5l-0.9-5.9L540.5,180.4z"
		/>
	<path fill="#F7F7F7" d="M407.6,220.5c0,0,4.3-0.5,2.1,2.2l-2.1,3.1h2.6c0,0,3.7,0.8,4.5,3.6c0,0-9,0.9-11.8-3.2
		C403,226.2,401.4,224.1,407.6,220.5L407.6,220.5z M419.1,237.5c0,0,0.3,3.4,3,3c0,0,3.8,4,7.7,1.4c0,0,1.8-6.8,0-8.3
		c0,0-1.3-0.1-4.3,1c0,0,1.3-1.9,0.8-2.7C426.1,231.8,425.1,230.6,419.1,237.5L419.1,237.5z M393.6,82.7c0,0,1.9,4.9,10.8-2.2
		c0,0-3,4.7-1.8,9.5l-6.9,2.2l5.4,1.2l-2.2,4.7h4l0.3,1.4l-8.1,5.9l3.6,0.5l-3.2,4.8c0,0,0.3,1.9,1.4,1.6h3.4c0,0-4.9,13.9-1.6,18.4
		l3,2.3l-0.3,4.8h3.6c0,0,3.4,3,3.4,5.9l-2.7,2.2l4,1.2c0,0,3,1.4,0,2.5c0,0-8.6-1.4-4.5,3l0.1,4.3l5.7,5.1l1.5,5.2l-3.1-1.8
		l-3.9-2.1c0,0-2.1-2.5-2.5-5.2c0,0-1.5-3.6-3.4-4.7c0,0-5.7-4.8-7.3-12c0,0-1.9-14.8-2.7-20.5C389.7,121,381.5,96.6,393.6,82.7z
		 M369.4,48.1c0,0,0.5,5.2-4.3,8.3c0,0-1.4,5.9,2.1,7c0,0,7,3.7,9.8,4.9l-1.2-3.2l3.1-1.3c0,0-1.6-3-1.6-3.2c0.1-0.2,6.1-5.1,5.9-7
		v-6C383.2,47.7,372.7,47.1,369.4,48.1z M569.5,212.2c0,0-5.8,4.3-2.1,8.8c0,0,1.6,0.8,3.1,0c0,0,3.4,2.7,5.4,0.3l0.5-1.2
		c0,0,3.5,2.3,5-0.5c0,0,0.4-4.7-2.6-4.7c0,0-3.2-3.7-6.3-1.9C572.5,213,570.6,212.1,569.5,212.2L569.5,212.2z"/>
</g>
</svg>
