<?xml version="1.0" encoding="utf-8"?>
<!-- Generator: Adobe Illustrator 18.1.1, SVG Export Plug-In . SVG Version: 6.00 Build 0)  -->
<svg version="1.1" xmlns="http://www.w3.org/2000/svg" xmlns:xlink="http://www.w3.org/1999/xlink" x="0px" y="0px"
	 viewBox="0 0 256 512" style="enable-background:new 0 0 256 512;" xml:space="preserve">
<style type="text/css">
	.st0{fill:#373731;}
	.st1{fill:#403C3D;}
	.st2{fill:#B7BABB;}
	.st3{fill:#B2B5B6;}
	.st4{fill:#B9BBBC;}
	.st5{fill:#F7F7F7;}
	.st6{fill:#DFE1DF;}
	.st7{display:none;}
	.st8{fill:#C78C61;}
	.st9{fill:#C38355;}
	.st10{fill:#C88E65;}
	.st11{fill:#9E5F2C;}
</style>
<g id="white_layer">
	<g>
		<path class="st0" d="M60.1,149.4l2.7,3.5v2.8l4.9,0.7l1.3,3.3l1.6,6.8c0,0-0.8-14.1,0.7,16.1s7,2.9,7,2.9l7.8,8.5l7.9-3.8l5.3,1.7
			l-1.3-5.7c0,0,2.4-8.3,5.8-12.1v-4.8h1.2v-3.7l-0.7-2.3l3.7,4.9l1.7-6.2c0,0,39.6-8.2,52.8-19.4l15.9,10.2c0,0,4.3,3.9,4.5,12.7
			v9.4l1.5,7.1c0,0,4.3-3.1,12.2-9.8l1.2-7.4l1.4,1.1l0.6,0.5h4.3l9.6,8.4l6,7.7h2.5h2.3l-2.3-1c0,0,2.9-0.1,2.3-0.5
			c-0.7-0.4-2.3-1.5-2.3-1.5s2.4-15.9-3.6-18.5c0,0-5.9-6.4-3.3-18.8c0,0,5.5-20-1.3-33.4c0,0,0.8-8.4-4.3-12
			c0,0-12.7-15.5-24.2-14.2c0,0-3.2-2.3-3.7-2.3c-0.5,0-3.2,1.1-3.2,1.1s-12.6-2.9-20.7,0.3c0,0-6.8,0.2-9.5-1.5h-4v3
			c0,0-7,2.4-8.8,2c0,0-6.6-4.7-14.4-0.3l-2.3-0.5l1.1-1.7h-6.4l-4.5-1.1l-4.3-4.1c0,0-3.1-6-6-6c0,0-3.5-4.7-2.8-7
			c0,0-7.4-6.1-12.4-13.2c0,0-5.6-14.4-10.7-14.6c0,0-6.6-4.4-23.9-1.9c0,0-5,1-5,5.2c0,0-1.2,2.2-4.3,4.2c-3.1,2-2.7,6.2-2.7,6.2
			l6.1,12.1c0,0,7.7,8.2,7.7,9l0.5,6.8L47.9,92l6.8,43.6L60.1,149.4z"/>
		<path class="st1" d="M22.9,52.2c0,0,5.5-3.1,4.5-8c0,0-6.2-1.6-6.4,0.9C21,45,19.1,46.3,22.9,52.2z"/>
		<path class="st0" d="M209.8,97l8.4,10.7l3.6,7.8c0,0,0.3,4.5,2.9,6.1c0,0,6.3,4.7,6.9,8l3.2,15.6c0,0,1.6,2.1,0,7.8l0.7,7.8h-2.9
			v4.3l-3.2-2.2l-5.8-3.2c0,0-9.1-7.8-6.4-28.6"/>
		<path class="st2" d="M72.3,164.9c0,0,0,10.8-0.5,12.5c0,0-0.9,2.9,0,8c0,0,0.7,5.2-0.4,7.3l-3.6,7.2c0,0-3.9,0-6.3,1.7v4.6
			l2.5,2.2l4.5,1.1c0,0,7.3,0.5,9.1-4.7c0,0,2.7-6.1,3.5-10.2l0.2-0.8l1.4-5.7l-1.3-2.4c0,0-2.1-1.8-1.8-2.2
			c0.3-0.4,1.7-2.1,1.7-2.1l-2.1-13.1l-0.9-2.1c0,0-2.8,0.5-2.8,0.2s-0.9-3.7-0.9-3.7L72.3,164.9z"/>
		<path class="st3" d="M81.2,193.7c0,0,3.6,5.1,1.4,9.1c0,0-2.2,6.1-6.3,10.2l2.6,3.9l2.9,4.2c0,0,8.8-0.8,9.6-3.1
			c0,0,2.9-8,2.8-11.6l0-3.2c0,0,7.5,1.1,8.4,2.5c0,0-0.9-2.4-4.4-4.1c-3.5-1.8,0-0.5,0-0.5l2-0.6l-1.1-1.9l-0.4-1.2l1-0.4l-0.6-1.3
			l-0.9-1.5l3.1-0.5l-2.2-1.9l-1.5-1.6l-2.3-2.9l-2.2,0.5l-2-1l-0.9,2.2l-1.8,1.6l-3,1l-1.3-1l-1.6-2.4L81.2,193.7z"/>
		<polygon class="st2" points="81.8,194 81.6,192.3 82.2,192.3 82.2,190.8 82.9,190.8 82.6,189.6 82.9,188.7 82.6,188.2 80.8,190.5 
			80.8,193.7 		"/>
		<polygon class="st3" points="59.9,142.5 65.2,145.6 67.2,145.6 69.8,148.3 71.4,148.3 70.5,144.2 70.8,143 72,141.2 69.8,138.1 
			69.3,135.2 69.4,129.5 66.5,132.4 62.8,131.5 61.4,131.5 59.1,133.5 58.7,138.9 		"/>
		<path class="st3" d="M49,75.6c0,0,2.5-4.8-2.6-6.3c0,0-8.2-3.5-9-4.9c0,0-2.5-1.4-3.5-1.9l-1.7-4.6l2.4-6.3l4.9-2.5
			c0,0,3.3,1,3.4,3.1c0,0-1,2.7,0.7,3.5c0,0,6,2.2,7.2,8.4c0,0,1.9,3.5,0.5,9c0,0,2.1,2.1,7.6,0.5l-2.7,3.8L51,80l-2.9-2.1L49,75.6z
			"/>
		<path class="st3" d="M44.7,39.8c0,0,3.8,1.4,4.1-1.9c0,0-0.9-2.1-3.7-0.5C45.1,37.4,44,37.6,44.7,39.8z"/>
		<path class="st3" d="M54.7,59.8v3.5c0,0,0.5,0.6,2.4-0.9C57.2,62.5,59.8,58.8,54.7,59.8z"/>
		<path class="st4" d="M162.6,142.7c0,0,3.9,9.8,18.3,13.5c0,0,1.7,0.9,1.7,3.2c0,0,5.7,6.1,17.2,7.1c0,0-10.5-8.6-13-9.6l-3.2-1.5
			l-0.4-2.7l-3.9-0.2l-2.8-4.1l-0.4-3.4l-1.9-0.9l-2.5-0.2l-3.5-1.5h-3L162.6,142.7z"/>
		<path class="st3" d="M202.2,166.5c0,0,12,9.6,9.8,20.3c0,0-1.3,6-2.7,7.7l4.6,4.6h5.6l1,2.1c0,0,3.2-3.6,3.2-5.4l-1.3-13.2
			c0,0-4.5-2.3-5.5-7.7c0,0-2.3-7.9-9-8.4H202.2z"/>
		<path class="st3" d="M183.3,164.9c0,0-0.7,2.1-0.7,7.5c0,0-1.5,2.5-4.1,2.5v3.8l3.5,0.8l5.5-0.5l-2.5-4.1l-0.8-5.4L183.3,164.9z"
			/>
		<path class="st5" d="M61.8,201.6c0,0,3.9-0.5,1.9,2l-1.9,2.8h2.4c0,0,3.4,0.7,4.1,3.3c0,0-8.2,0.8-10.8-2.9
			C57.6,206.8,56.1,204.9,61.8,201.6z"/>
		<path class="st5" d="M72.3,217.1c0,0,0.3,3.1,2.7,2.7c0,0,3.5,3.7,7,1.3c0,0,1.6-6.2,0-7.6c0,0-1.2-0.1-3.9,0.9
			c0,0,1.2-1.7,0.7-2.5C78.7,211.9,77.8,210.8,72.3,217.1z"/>
		<path class="st5" d="M49,75.6c0,0,1.7,4.5,9.9-2c0,0-2.7,4.3-1.6,8.7l-6.3,2l4.9,1.1l-2,4.3h3.7l0.3,1.3l-7.4,5.4l3.3,0.5
			l-2.9,4.4c0,0,0.3,1.7,1.3,1.5l3.1,0c0,0-4.5,12.7-1.5,16.8l2.7,2.1l-0.3,4.4h3.3c0,0,3.1,2.7,3.1,5.4l-2.5,2l3.7,1.1
			c0,0,2.7,1.3,0,2.3c0,0-7.9-1.3-4.1,2.7l0.1,3.9l5.2,4.7l1.4,4.8l-2.8-1.6l-3.6-1.9c0,0-1.9-2.3-2.3-4.8c0,0-1.4-3.3-3.1-4.3
			c0,0-5.2-4.4-6.7-11c0,0-1.7-13.5-2.5-18.7C45.4,110.6,37.9,88.3,49,75.6z"/>
		<path class="st5" d="M26.9,44c0,0,0.5,4.8-3.9,7.6c0,0-1.3,5.4,1.9,6.4c0,0,6.4,3.4,9,4.5l-1.1-2.9l2.8-1.2c0,0-1.5-2.7-1.5-2.9
			c0.1-0.2,5.6-4.7,5.4-6.4l0-5.5C39.5,43.6,29.9,43.1,26.9,44z"/>
		<path class="st5" d="M209.8,194c0,0-5.3,3.9-1.9,8c0,0,1.5,0.7,2.8,0c0,0,3.1,2.5,4.9,0.3l0.5-1.1c0,0,3.2,2.1,4.6-0.5
			c0,0,0.4-4.3-2.4-4.3c0,0-2.9-3.4-5.8-1.7C212.6,194.7,210.8,193.9,209.8,194z"/>
		<path class="st6" d="M180.3,177.9c0,0,1-2.9-1.8-2.9c0,0-2.9,0.9-3.3,3.4c0,0-2.5,1.8,0.8,3.7c0,0,4.2,1.3,8.6,0
			c0,0,2.8-1.9,2.9-2.9C187.4,179.1,187,177.2,180.3,177.9z"/>
	</g>
	<g>
		<path class="st0" d="M60.1,405.4l2.7,3.5v2.8l4.9,0.7l1.3,3.3l1.6,6.8c0,0-0.8-14.1,0.7,16.1s7,2.9,7,2.9l7.8,8.5l7.9-3.8l5.3,1.7
			l-1.3-5.7c0,0,2.4-8.3,5.8-12.1v-4.8h1.2v-3.7l-0.7-2.3l3.7,4.9l1.7-6.2c0,0,39.6-8.2,52.8-19.4l15.9,10.2c0,0,4.3,3.9,4.5,12.7
			v9.4l1.5,7.1c0,0,4.3-3.1,12.2-9.8l1.2-7.4l1.4,1.1l0.6,0.5h4.3l9.6,8.4l6,7.7h2.5h2.3l-2.3-1c0,0,2.9-0.1,2.3-0.5
			c-0.7-0.4-2.3-1.5-2.3-1.5s2.4-15.9-3.6-18.5c0,0-5.9-6.4-3.3-18.8c0,0,5.5-20-1.3-33.4c0,0,0.8-8.4-4.3-12
			c0,0-12.7-15.5-24.2-14.2c0,0-3.2-2.3-3.7-2.3c-0.5,0-3.2,1.1-3.2,1.1s-12.6-2.9-20.7,0.3c0,0-6.8,0.2-9.5-1.5h-4v3
			c0,0-7,2.4-8.8,2c0,0-6.6-4.7-14.4-0.3l-2.3-0.5l1.1-1.7h-6.4l-4.5-1.1l-4.3-4.1c0,0-3.1-6-6-6c0,0-3.5-4.7-2.8-7
			c0,0-7.4-6.1-12.4-13.2c0,0-5.6-14.4-10.7-14.6c0,0-6.6-4.4-23.9-1.9c0,0-5,1-5,5.2c0,0-1.2,2.2-4.3,4.2c-3.1,2-2.7,6.2-2.7,6.2
			l6.1,12.1c0,0,7.7,8.2,7.7,9l0.5,6.8L47.9,348l6.8,43.6L60.1,405.4z"/>
		<path class="st1" d="M22.9,308.2c0,0,5.5-3.1,4.5-8c0,0-6.2-1.6-6.4,0.9C21,301,19.1,302.3,22.9,308.2z"/>
		<path class="st0" d="M209.8,353l8.4,10.7l3.6,7.8c0,0,0.3,4.5,2.9,6.1c0,0,6.3,4.7,6.9,8l3.2,15.6c0,0,1.6,2.1,0,7.8l0.7,7.8h-2.9
			v4.3l-3.2-2.2l-5.8-3.2c0,0-9.1-7.8-6.4-28.6"/>
		<path class="st2" d="M72.3,420.9c0,0,0,10.8-0.5,12.5c0,0-0.9,2.9,0,8c0,0,0.7,5.2-0.4,7.3l-3.6,7.2c0,0-3.9,0-6.3,1.7v4.6
			l2.5,2.2l4.5,1.1c0,0,7.3,0.5,9.1-4.7c0,0,2.7-6.1,3.5-10.2l0.2-0.8l1.4-5.7l-1.3-2.4c0,0-2.1-1.8-1.8-2.2s1.7-2.1,1.7-2.1
			l-2.1-13.1l-0.9-2.1c0,0-2.8,0.5-2.8,0.2c0-0.3-0.9-3.7-0.9-3.7L72.3,420.9z"/>
		<path class="st3" d="M81.2,449.7c0,0,3.6,5.1,1.4,9.1c0,0-2.2,6.1-6.3,10.2l2.6,3.9l2.9,4.2c0,0,8.8-0.8,9.6-3.1
			c0,0,2.9-8,2.8-11.6l0-3.2c0,0,7.5,1.1,8.4,2.5c0,0-0.9-2.4-4.4-4.1c-3.5-1.8,0-0.5,0-0.5l2-0.6l-1.1-1.9l-0.4-1.2l1-0.4l-0.6-1.3
			l-0.9-1.5l3.1-0.5l-2.2-1.9l-1.5-1.6l-2.3-2.9l-2.2,0.5l-2-1l-0.9,2.2l-1.8,1.6l-3,1l-1.3-1l-1.6-2.4L81.2,449.7z"/>
		<polygon class="st2" points="81.8,450 81.6,448.3 82.2,448.3 82.2,446.8 82.9,446.8 82.6,445.6 82.9,444.7 82.6,444.2 80.8,446.5 
			80.8,449.7 		"/>
		<polygon class="st3" points="59.9,398.5 65.2,401.6 67.2,401.6 69.8,404.3 71.4,404.3 70.5,400.2 70.8,399 72,397.2 69.8,394.1 
			69.3,391.2 69.4,385.5 66.5,388.4 62.8,387.5 61.4,387.5 59.1,389.5 58.7,394.9 		"/>
		<path class="st3" d="M49,331.6c0,0,2.5-4.8-2.6-6.3c0,0-8.2-3.5-9-4.9c0,0-2.5-1.4-3.5-1.9l-1.7-4.6l2.4-6.3l4.9-2.5
			c0,0,3.3,1,3.4,3.1c0,0-1,2.7,0.7,3.5c0,0,6,2.2,7.2,8.4c0,0,1.9,3.5,0.5,9c0,0,2.1,2.1,7.6,0.5l-2.7,3.8L51,336l-2.9-2.1
			L49,331.6z"/>
		<path class="st3" d="M44.7,295.8c0,0,3.8,1.4,4.1-1.9c0,0-0.9-2.1-3.7-0.5C45.1,293.4,44,293.6,44.7,295.8z"/>
		<path class="st3" d="M54.7,315.8v3.5c0,0,0.5,0.6,2.4-0.9C57.2,318.5,59.8,314.8,54.7,315.8z"/>
		<path class="st4" d="M162.6,398.7c0,0,3.9,9.8,18.3,13.5c0,0,1.7,0.9,1.7,3.2c0,0,5.7,6.1,17.2,7.1c0,0-10.5-8.6-13-9.6l-3.2-1.5
			l-0.4-2.7l-3.9-0.2l-2.8-4.1l-0.4-3.4l-1.9-0.9l-2.5-0.2l-3.5-1.5h-3L162.6,398.7z"/>
		<path class="st3" d="M202.2,422.5c0,0,12,9.6,9.8,20.3c0,0-1.3,6-2.7,7.7l4.6,4.6h5.6l1,2.1c0,0,3.2-3.6,3.2-5.4l-1.3-13.2
			c0,0-4.5-2.3-5.5-7.7c0,0-2.3-7.9-9-8.4H202.2z"/>
		<path class="st3" d="M183.3,420.9c0,0-0.7,2.1-0.7,7.5c0,0-1.5,2.5-4.1,2.5v3.8l3.5,0.8l5.5-0.5l-2.5-4.1l-0.8-5.4L183.3,420.9z"
			/>
		<path class="st5" d="M61.8,457.6c0,0,3.9-0.5,1.9,2l-1.9,2.8h2.4c0,0,3.4,0.7,4.1,3.3c0,0-8.2,0.8-10.8-2.9
			C57.6,462.8,56.1,460.9,61.8,457.6z"/>
		<path class="st5" d="M72.3,473.1c0,0,0.3,3.1,2.7,2.7c0,0,3.5,3.7,7,1.3c0,0,1.6-6.2,0-7.6c0,0-1.2-0.1-3.9,0.9
			c0,0,1.2-1.7,0.7-2.5C78.7,467.9,77.8,466.8,72.3,473.1z"/>
		<path class="st5" d="M49,331.6c0,0,1.7,4.5,9.9-2c0,0-2.7,4.3-1.6,8.7l-6.3,2l4.9,1.1l-2,4.3h3.7l0.3,1.3l-7.4,5.4l3.3,0.5
			l-2.9,4.4c0,0,0.3,1.7,1.3,1.5l3.1,0c0,0-4.5,12.7-1.5,16.8l2.7,2.1l-0.3,4.4h3.3c0,0,3.1,2.7,3.1,5.4l-2.5,2l3.7,1.1
			c0,0,2.7,1.3,0,2.3c0,0-7.9-1.3-4.1,2.7l0.1,3.9l5.2,4.7l1.4,4.8l-2.8-1.6l-3.6-1.9c0,0-1.9-2.3-2.3-4.8c0,0-1.4-3.3-3.1-4.3
			c0,0-5.2-4.4-6.7-11c0,0-1.7-13.5-2.5-18.7C45.4,366.6,37.9,344.3,49,331.6z"/>
		<path class="st5" d="M26.9,300c0,0,0.5,4.8-3.9,7.6c0,0-1.3,5.4,1.9,6.4c0,0,6.4,3.4,9,4.5l-1.1-2.9l2.8-1.2c0,0-1.5-2.7-1.5-2.9
			c0.1-0.2,5.6-4.7,5.4-6.4l0-5.5C39.5,299.6,29.9,299.1,26.9,300z"/>
		<path class="st5" d="M209.8,450c0,0-5.3,3.9-1.9,8c0,0,1.5,0.7,2.8,0c0,0,3.1,2.5,4.9,0.3l0.5-1.1c0,0,3.2,2.1,4.6-0.5
			c0,0,0.4-4.3-2.4-4.3c0,0-2.9-3.4-5.8-1.7C212.6,450.7,210.8,449.9,209.8,450z"/>
		<path class="st6" d="M180.3,433.9c0,0,1-2.9-1.8-2.9c0,0-2.9,0.9-3.3,3.4c0,0-2.5,1.8,0.8,3.7c0,0,4.2,1.3,8.6,0
			c0,0,2.8-1.9,2.9-2.9C187.4,435.1,187,433.2,180.3,433.9z"/>
	</g>
</g>
<g id="Layer_1" class="st7">
	
		<image style="display:inline;overflow:visible;" width="872" height="608" xlink:href="BCBDEB86BA21BE2D.png"  transform="matrix(0.5 0 0 0.5 -88.2865 -28.8254)">
	</image>
</g>
<g id="light_black">
</g>
<g id="caramel_layer">
	<g>
		<path class="st5" d="M61.8,201.6c0,0,3.9-0.5,1.9,2l-1.9,2.8h2.4c0,0,3.4,0.7,4.1,3.3c0,0-8.2,0.8-10.8-2.9
			C57.6,206.8,56.1,204.9,61.8,201.6z"/>
		<path class="st5" d="M72.3,217.1c0,0,0.3,3.1,2.7,2.7c0,0,3.5,3.7,7,1.3c0,0,1.6-6.2,0-7.6c0,0-1.2-0.1-3.9,0.9
			c0,0,1.2-1.7,0.7-2.5C78.7,211.9,77.8,210.8,72.3,217.1z"/>
		<path class="st5" d="M49,75.6c0,0,1.7,4.5,9.9-2c0,0-2.7,4.3-1.6,8.7l-6.3,2l4.9,1.1l-2,4.3h3.7l0.3,1.3l-7.4,5.4l3.3,0.5
			l-2.9,4.4c0,0,0.3,1.7,1.3,1.5l3.1,0c0,0-4.5,12.7-1.5,16.8l2.7,2.1l-0.3,4.4h3.3c0,0,3.1,2.7,3.1,5.4l-2.5,2l3.7,1.1
			c0,0,2.7,1.3,0,2.3c0,0-7.9-1.3-4.1,2.7l0.1,3.9l5.2,4.7l1.4,4.8l-2.8-1.6l-3.6-1.9c0,0-1.9-2.3-2.3-4.8c0,0-1.4-3.3-3.1-4.3
			c0,0-5.2-4.4-6.7-11c0,0-1.7-13.5-2.5-18.7C45.4,110.6,37.9,88.3,49,75.6z"/>
		<path class="st5" d="M26.9,44c0,0,0.5,4.8-3.9,7.6c0,0-1.3,5.4,1.9,6.4c0,0,6.4,3.4,9,4.5l-1.1-2.9l2.8-1.2c0,0-1.5-2.7-1.5-2.9
			c0.1-0.2,5.6-4.7,5.4-6.4l0-5.5C39.5,43.6,29.9,43.1,26.9,44z"/>
		<path class="st5" d="M209.8,194c0,0-5.3,3.9-1.9,8c0,0,1.5,0.7,2.8,0c0,0,3.1,2.5,4.9,0.3l0.5-1.1c0,0,3.2,2.1,4.6-0.5
			c0,0,0.4-4.3-2.4-4.3c0,0-2.9-3.4-5.8-1.7C212.6,194.7,210.8,193.9,209.8,194z"/>
		<path class="st6" d="M180.3,177.9c0,0,1-2.9-1.8-2.9c0,0-2.9,0.9-3.3,3.4c0,0-2.5,1.8,0.8,3.7c0,0,4.2,1.3,8.6,0
			c0,0,2.8-1.9,2.9-2.9C187.4,179.1,187,177.2,180.3,177.9z"/>
		<path class="st0" d="M60.1,149.4l2.7,3.5v2.8l4.9,0.7l1.3,3.3l1.6,6.8c0,0-0.8-14.1,0.7,16.1s7,2.9,7,2.9l7.8,8.5l7.9-3.8l5.3,1.7
			l-1.3-5.7c0,0,2.4-8.3,5.8-12.1v-4.8h1.2v-3.7l-0.7-2.3l3.7,4.9l1.7-6.2c0,0,39.6-8.2,52.8-19.4l15.9,10.2c0,0,4.3,3.9,4.5,12.7
			v9.4l1.5,7.1c0,0,4.3-3.1,12.2-9.8l1.2-7.4l1.4,1.1l0.6,0.5h4.3l9.6,8.4l6,7.7h2.5h2.3l-2.3-1c0,0,2.9-0.1,2.3-0.5
			s-2.3-1.5-2.3-1.5s2.4-15.9-3.6-18.5c0,0-5.9-6.4-3.3-18.8c0,0,5.5-20-1.3-33.4c0,0,0.8-8.4-4.3-12c0,0-12.7-15.5-24.2-14.2
			c0,0-3.2-2.3-3.7-2.3c-0.5,0-3.2,1.1-3.2,1.1s-12.6-2.9-20.7,0.3c0,0-6.8,0.2-9.5-1.5h-4v3c0,0-7,2.4-8.8,2c0,0-6.6-4.7-14.4-0.3
			l-2.3-0.5l1.1-1.7h-6.4l-4.5-1.1l-4.3-4.1c0,0-3.1-6-6-6c0,0-3.5-4.7-2.8-7c0,0-7.4-6.1-12.4-13.2c0,0-5.6-14.4-10.7-14.6
			c0,0-6.6-4.4-23.9-1.9c0,0-5,1-5,5.2c0,0-1.2,2.2-4.3,4.2c-3.1,2-2.7,6.2-2.7,6.2l6.1,12.1c0,0,7.7,8.2,7.7,9l0.5,6.8L47.9,92
			l6.8,43.6L60.1,149.4z"/>
		<path class="st1" d="M22.9,52.2c0,0,5.5-3.1,4.5-8c0,0-6.2-1.6-6.4,0.9C21,45,19.1,46.3,22.9,52.2z"/>
		<path class="st0" d="M209.8,97l8.4,10.7l3.6,7.8c0,0,0.3,4.5,2.9,6.1c0,0,6.3,4.7,6.9,8l3.2,15.6c0,0,1.6,2.1,0,7.8l0.7,7.8h-2.9
			v4.3l-3.2-2.2l-5.8-3.2c0,0-9.1-7.8-6.4-28.6"/>
		<path class="st8" d="M72.3,164.9c0,0,0,10.8-0.5,12.5c0,0-0.9,2.9,0,8c0,0,0.7,5.2-0.4,7.3l-3.6,7.2c0,0-3.9,0-6.3,1.7v4.6
			l2.5,2.2l4.5,1.1c0,0,7.3,0.5,9.1-4.7c0,0,2.7-6.1,3.5-10.2l0.2-0.8l1.4-5.7l-1.3-2.4c0,0-2.1-1.8-1.8-2.2
			c0.3-0.4,1.7-2.1,1.7-2.1l-2.1-13.1l-0.9-2.1c0,0-2.8,0.5-2.8,0.2c0-0.3-0.9-3.7-0.9-3.7L72.3,164.9z"/>
		<path class="st9" d="M81.2,193.7c0,0,3.6,5.1,1.4,9.1c0,0-2.2,6.1-6.3,10.2l2.6,3.9l2.9,4.2c0,0,8.8-0.8,9.6-3.1
			c0,0,2.9-8,2.8-11.6l0-3.2c0,0,7.5,1.1,8.4,2.5c0,0-0.9-2.4-4.4-4.1c-3.5-1.8,0-0.5,0-0.5l2-0.6l-1.1-1.9l-0.4-1.2l1-0.4l-0.6-1.3
			l-0.9-1.5l3.1-0.5l-2.2-1.9l-1.5-1.6l-2.3-2.9l-2.2,0.5l-2-1l-0.9,2.2l-1.8,1.6l-3,1l-1.3-1l-1.6-2.4L81.2,193.7z"/>
		<polygon class="st8" points="81.8,194 81.6,192.3 82.2,192.3 82.2,190.8 82.9,190.8 82.6,189.6 82.9,188.7 82.6,188.2 80.8,190.5 
			80.8,193.7 		"/>
		<polygon class="st9" points="59.9,142.5 65.2,145.6 67.2,145.6 69.8,148.3 71.4,148.3 70.5,144.2 70.8,143 72,141.2 69.8,138.1 
			69.3,135.2 69.4,129.5 66.5,132.4 62.8,131.5 61.4,131.5 59.1,133.5 58.7,138.9 		"/>
		<path class="st9" d="M49,75.6c0,0,2.5-4.8-2.6-6.3c0,0-8.2-3.5-9-4.9c0,0-2.5-1.4-3.5-1.9l-1.7-4.6l2.4-6.3l4.9-2.5
			c0,0,3.3,1,3.4,3.1c0,0-1,2.7,0.7,3.5c0,0,6,2.2,7.2,8.4c0,0,1.9,3.5,0.5,9c0,0,2.1,2.1,7.6,0.5l-2.7,3.8L51,80l-2.9-2.1L49,75.6z
			"/>
		<path class="st9" d="M44.7,39.8c0,0,3.8,1.4,4.1-1.9c0,0-0.9-2.1-3.7-0.5C45.1,37.4,44,37.6,44.7,39.8z"/>
		<path class="st9" d="M54.7,59.8v3.5c0,0,0.5,0.6,2.4-0.9C57.2,62.5,59.8,58.8,54.7,59.8z"/>
		<path class="st10" d="M162.6,142.7c0,0,3.9,9.8,18.3,13.5c0,0,1.7,0.9,1.7,3.2c0,0,5.7,6.1,17.2,7.1c0,0-10.5-8.6-13-9.6l-3.2-1.5
			l-0.4-2.7l-3.9-0.2l-2.8-4.1l-0.4-3.4l-1.9-0.9l-2.5-0.2l-3.5-1.5h-3L162.6,142.7z"/>
		<path class="st9" d="M202.2,166.5c0,0,12,9.6,9.8,20.3c0,0-1.3,6-2.7,7.7l4.6,4.6h5.6l1,2.1c0,0,3.2-3.6,3.2-5.4l-1.3-13.2
			c0,0-4.5-2.3-5.5-7.7c0,0-2.3-7.9-9-8.4H202.2z"/>
		<path class="st11" d="M183.3,164.9c0,0-0.7,2.1-0.7,7.5c0,0-1.5,2.5-4.1,2.5v3.8l3.5,0.8l5.5-0.5l-2.5-4.1l-0.8-5.4L183.3,164.9z"
			/>
	</g>
</g>
</svg>
