<svg xmlns="http://www.w3.org/2000/svg" xmlns:xlink="http://www.w3.org/1999/xlink" viewBox="0 0 588.9 514.4" enable-background="new 0 0 588.9 514.4"><style type="text/css">.st0{display:none;} .st1{fill:#373731;} .st2{fill:#403C3D;} .st3{fill:#C78C61;} .st4{fill:#C38355;} .st5{fill:#C88E65;} .st6{fill:#9E5F2C;} .st7{fill:#F7F7F7;} .st8{fill:#DFE1DF;}</style><image width="872" height="608" xlink:href="C81C74069DD883A6.png" transform="matrix(.5 0 0 .5 78.179 100.366)" overflow="visible" id="Layer_1" class="st0"/><g id="light_black"><path class="st1" d="M120.3 312.1l6.9 8.9v7.2l12.7 1.7 3.4 8.6 4.1 17.5s-2.1-36.1 1.8 41.3c4 77.4 18.1 7.4 18.1 7.4l19.9 21.8 20.2-9.8 13.5 4.5-3.2-14.6s6.2-21.4 14.8-31v-12.4h3.1v-9.6l-1.7-5.8 9.6 12.7 4.5-15.8s101.6-20.9 135.4-49.7l40.7 26.1s11 9.9 11.5 32.6v24l3.9 18.2s11-7.9 31.2-25l3-18.9 3.5 2.8 1.6 1.3h11.2l24.7 21.6 15.4 19.7h12.3l-5.8-2.6s7.5-.3 5.8-1.4c-1.7-1-5.8-3.8-5.8-3.8s6.2-40.8-9.3-47.3c0 0-15.1-16.5-8.6-48.2 0 0 14.1-51.3-3.4-85.6 0 0 2.1-21.6-11-30.9 0 0-32.6-39.8-62.1-36.4 0 0-8.2-5.8-9.6-5.8-1.4 0-8.2 2.7-8.2 2.7s-32.3-7.5-53.2.7c0 0-17.5.5-24.4-3.8h-10.3v7.6s-17.8 6.2-22.6 5.1c0 0-16.8-12-37.1-.7l-5.8-1.4 2.7-4.5h-16.5l-11.7-2.7-11-10.6s-7.9-15.4-15.4-15.4c0 0-8.9-12-7.2-18 0 0-18.9-15.6-31.9-33.8 0 0-14.4-37-27.4-37.4 0 0-16.8-11.3-61.2-4.8 0 0-12.9 2.6-12.9 13.3 0 0-3 5.6-11 10.7l-6.8 15.9 15.6 30.9s19.7 21.1 19.7 23.2l1.4 17.5-8.2 35 17.4 111.8 13.7 35.4z"/><path class="st2" d="M24.8 62.6s14.2-8.1 11.6-20.6c0 0-16-4.2-16.5 2.3 0 .1-4.8 3.3 4.9 18.3z"/><path class="st1" d="M504.2 177.6l21.6 27.4 9.3 20s.9 11.5 7.5 15.7c0 0 16.2 12 17.6 20.4l8.2 40s4.1 5.5 0 19.9l1.8 19.9h-7.3v11l-8.2-5.6-14.8-8.1s-23.3-20-16.5-73.4"/></g><g id="caramel_layer"><path class="st3" d="M151.5 351.9s-.1 27.8-1.4 32.2c0 0-2.3 7.5 0 20.6 0 0 1.8 13.4-1 18.8l-9.3 18.5s-10 .1-16.1 4.5v11.7l6.4 5.7 11.5 2.9s18.8 1.2 23.2-12.2c0 0 7-15.7 9-26.2l.5-2.1 3.7-14.6-3.5-6.2s-5.4-4.6-4.6-5.7c.8-1 4.4-5.4 4.4-5.4l-5.4-33.7-2.3-5.4s-7.2 1.3-7.2.5l-2.3-9.5-5.6 5.6z"/><path class="st4" d="M174.5 425.7s9.1 13 3.5 23.3c0 0-5.8 15.7-16.1 26.2l6.8 9.9 7.5 10.9s22.6-2.1 24.7-7.9c0 0 7.4-20.6 7.1-29.8v-8.2s19.3 2.7 21.6 6.4c0 0-2.3-6.1-11.3-10.6v-1.2l5.1-1.5-2.8-4.9-1-3.1 2.6-1-1.5-3.3-2.3-3.9 8-1.2-5.7-4.8-3.9-4.1-5.9-7.5-5.7 1.3-5.1-2.6-2.3 5.7-4.6 4.1-7.7 2.6-3.3-2.6-4-6.2-3.7 14z"/><path class="st3" d="M176.1 426.5l-.7-4.3h1.6v-4h1.9l-.8-3 .8-2.3-.8-1.3-4.6 5.9v8.1z"/><path class="st4" d="M119.9 294.3l13.5 8h5.2l6.7 6.9h4.1l-2.3-10.5.7-3.1 3.1-4.6-5.6-8-1.3-7.2.2-14.7-7.4 7.5-9.6-2.5-3.5.2-6 5.1-1 13.8zm-28.1-171.6s6.5-12.4-6.7-16.1c0 0-20.9-9.1-23.2-12.5 0 0-6.3-3.6-8.9-4.8l-4.3-11.8 6.2-16.1 12.5-6.5s8.4 2.6 8.8 7.9c0 0-2.6 6.9 1.9 9.1 0 0 15.4 5.7 18.4 21.4 0 0 4.8 9.1 1.4 23.2 0 0 5.3 5.3 19.4 1.2l-7 9.8-13.3 6.5-7.4-5.3 2.2-6zm-11.1-91.8s9.8 3.6 10.6-4.8c0 0-2.4-5.5-9.6-1.4 0 0-2.6.7-1 6.2zm25.8 51.5v9.1s1.3 1.5 6.3-2.2c0-.1 6.6-9.7-6.3-6.9z"/><path class="st5" d="M383.3 294.9s9.9 25 46.8 34.7c0 0 4.3 2.4 4.5 8.2 0 0 14.6 15.6 44.1 18.2 0 0-26.9-22.1-33.5-24.7l-8.2-3.8-1-6.9-9.9-.5-7.2-10.6-1-8.7-4.8-2.2-6.4-.5-9.1-3.9h-7.7l-6.6.7z"/><path class="st4" d="M484.7 356s30.9 24.5 25 52.1c0 0-3.4 15.5-7 19.8l11.9 11.9h14.4l2.7 5.4s8.3-9.1 8.3-13.9l-3.4-33.8s-11.7-6-14.1-19.7c0 0-5.8-20.2-23-21.6h-14.8z"/><path class="st6" d="M436.3 351.9s-1.7 5.5-1.7 19.2c0 0-3.8 6.5-10.6 6.5v9.9l8.9 2.2 14.1-1.4-6.5-10.6-2.1-13.7-2.1-12.1z"/></g><g id="white_layer"><path class="st7" d="M124.8 445.9s9.9-1.4 4.8 5.1l-4.8 7.2h6.3s8.8 1.7 10.5 8.6c0 0-20.9 2.1-27.8-7.5 0-.1-3.8-4.9 11-13.4zm26.7 39.8s.7 7.9 6.9 6.9c0 0 8.9 9.6 17.8 3.4 0 0 4.1-15.8 0-19.6 0 0-3.1-.3-9.9 2.4 0 0 3.1-4.5 1.7-6.5 0 0-2.4-2.8-16.5 13.4zm-59.7-363s4.5 11.7 25.4-5.1c0 0-6.9 11-4.1 22.3l-16.1 5.1 12.7 2.7-5.1 11h9.6l.7 3.4-18.9 13.7 8.6 1.4-7.6 11.3s.7 4.5 3.4 3.8l7.9.1s-11.7 32.5-3.8 43.2l6.9 5.5-.7 11.3h8.6s7.9 6.9 7.9 13.7l-6.5 5.1 9.6 2.7s6.9 3.4 0 5.8c0 0-20.2-3.4-10.6 6.9l.3 9.9 13.3 12 3.5 12.4-7.2-4.1-9.3-4.8s-4.8-5.8-6-12.4c0 0-3.6-8.6-8.1-11 0 0-13.4-11.3-17.2-28.1 0 0-4.5-34.7-6.5-48 .1.1-19.2-57.2 9.3-89.8zm-56.8-81s1.2 12.4-9.9 19.6c0 0-3.2 13.7 5 16.5 0 0 16.4 8.7 23 11.5l-2.7-7.4 7.2-3.1s-3.9-7-3.8-7.5 14.4-12 13.7-16.5v-14.1s-24.7-1.4-32.5 1zm469.2 384.8s-13.6 10.1-4.8 20.6c0 0 3.9 1.7 7.2 0 0 0 7.9 6.5 12.7.8l1.4-2.8s8.2 5.5 11.8-1.4c0 0 1-11-6.2-11 0 0-7.4-8.7-14.9-4.3 0 0-4.6-2.3-7.2-1.9z"/><path class="st8" d="M428.6 385.1s2.6-7.5-4.6-7.5c0 0-7.4 2.2-8.6 8.7 0 0-6.5 4.6 2.1 9.4 0 0 10.8 3.4 22 0 0 0 7.2-4.8 7.5-7.5-.1 0-1.3-4.8-18.4-3.1z"/></g></svg>