<svg xmlns="http://www.w3.org/2000/svg" viewBox="0 0 415 215"><style>.st0{fill:#C7B299;}</style><path d="M404 114.4c-13.5 12.9-36.5 10.8-51.3-4.7-2.2-2.3-4.1-4.8-5.7-7.5-33.7 6.9-174.1 36.4-244.3 59.8 7.6 14.3 6.1 31.3-4.8 41.7-13.5 12.9-36.5 10.8-51.3-4.7-9.7-10.2-13.5-23.6-11.1-35.3-7.9-1.6-15.8-5.8-22.1-12.4-14.9-15.6-15.9-38.6-2.4-51.5 13.5-12.9 36.5-10.8 51.3 4.7 2.5 2.6 4.6 5.4 6.3 8.3 48.8-8.1 183.9-31.8 246.4-56.3-10.4-15.1-9.9-34.5 2.2-46 13.5-12.9 36.5-10.8 51.3 4.7 9.7 10.2 13.5 23.6 11.1 35.3 7.9 1.6 15.8 5.8 22.1 12.4 14.8 15.5 15.8 38.6 2.3 51.5z" class="st0"/></svg>