<?xml version="1.0" encoding="utf-8"?>
<!-- Generator: Adobe Illustrator 18.1.1, SVG Export Plug-In . SVG Version: 6.00 Build 0)  -->
<svg version="1.1" id="Layer_1" xmlns="http://www.w3.org/2000/svg" xmlns:xlink="http://www.w3.org/1999/xlink" x="0px" y="0px"
	 viewBox="0 0 605.4 513.5" style="enable-background:new 0 0 605.4 513.5;" xml:space="preserve">
<style type="text/css">
	.st0{fill:#FFFFFF;}
	.st1{fill:#CAAA77;}
</style>
<g>
	<g id="XMLID_1_">
		<g>
			<path class="st0" d="M605.2,362.2c0,50.3,0,100.7,0,151c-43.2,0-86.4,0-129.6,0v-7.4c10.4,0,18.6-5.2,24-15.4
				c2-3.8,3.4-7.9,4.7-12.1c3.8-12,3.4-24.5,3.9-36c0-3.9,0.1-6.9,0-9.9c-0.2-9.7-0.8-19.4-2.2-29l8.8-1.2
				c0.9,6.1,3.3,11.6,8.4,15.9c7.3,6.2,15.6,6.6,24.5,4.7c22.9-4.8,48.8-32.3,48.8-60.8H605.2z"/>
			<path class="st0" d="M605.2,0.2c0,120.6,0,241.3,0,361.9h-8.7c0-0.3,0-0.6,0-0.9c-0.1-2-0.1-4-0.3-6
				c-1.1-11.6-8.7-20.3-19.5-22.4c-6.7-1.3-13.1,0-19.3,2.5c-16.8,6.9-28.6,19.1-37.1,34.9c-4.7,8.7-6.3,18-5.9,27.8
				c0.1,1.5,0.2,2.9,0.4,4.3l-8.8,1.2c-1.1-7.4-2.8-14.8-5.2-22c-4.3-12.8-10.6-24.3-21.4-32.8c-3.9-3.1-8.2-5.5-13.3-6.6
				c-12.6-2.7-24.9-1.2-36.9,2.9c-14.7,4.9-27.7,12.9-40,22.2c-16,12-30.7,25.3-41.7,42.3c-3.7,5.7-7,11.5-8.5,18.2
				c-3.7,16.2,2.2,28,17.5,34.5c2.2,0.9,4.5,1.8,6.8,2.4c10.2,2.9,20.6,4,31.1,4c11.3,0,21.2,3.4,29.7,11c4.8,4.3,9.9,8.1,15.2,11.8
				c8.8,6.2,18.1,11.2,28.8,13.4c2.6,0.6,5.2,0.8,7.6,0.8v7.4c-158.4,0-316.8,0-475.3,0c0-171,0-341.9,0-513
				C201.8,0.2,403.5,0.2,605.2,0.2z M579.2,264.7c0-1.2,0.1-2.5,0-3.8c-0.8-13.8-9.1-24.2-21.5-27.1c-8-1.8-16-1.1-23.5,2.1
				c-16.7,7.2-29,19.3-38.2,34.7c-6.9,11.6-11,24.1-10.2,37.8c1,17,13,28,30,27.1c7.8-0.4,15.2-2.8,22.2-6.4
				c18.8-9.6,30.3-25.6,37.7-44.8C578.2,278.2,579.2,271.5,579.2,264.7z M481.8,278.7c4.5-10.1,6.1-20.7,6.5-31.7
				c-0.7-5.8-1-11.6-2.1-17.3c-2.1-11-6.2-21.1-14.5-29c-8.2-7.9-17.9-10.4-28.8-6.7c-8,2.8-14.5,8-19,15.1
				c-9.8,15.2-13.3,32.2-12.4,50.1c0.6,11.3,3.2,22.2,9.2,32.1c1.5,2.4,3.1,4.8,5,6.9c11,12.4,26.9,13.7,39.6,2.9
				C472.4,294.8,477.9,287.3,481.8,278.7z M398.2,348.2c4.3-7.9,6.2-16.5,6.2-27.5c-0.3-9.9-3-21.4-8.3-32.1
				c-5.4-10.8-13.7-18.9-24.2-24.5c-11.8-6.2-24.7-2.7-31.8,8.7c-2.3,3.8-4.2,8-5.2,12.3c-4.7,20.2-0.7,39,10.4,56.3
				c4.8,7.5,11.6,13.3,19.7,17.3C378.1,365.2,391.2,361.1,398.2,348.2z M286.7,127.6c0.5-15.1-4.7-28.9-15.2-40.6
				c-10.4-11.6-25.7-11.8-36.6-0.7c-3.2,3.3-6,7.2-8.2,11.2c-7.2,13.3-9.1,27.7-7.7,42.6c1.2,12.9,6.3,24.1,15.4,33.3
				c10.5,10.5,24.8,10.5,35.4,0.2c4.6-4.4,8.1-9.7,10.8-15.5C285.2,148.7,286.6,138.6,286.7,127.6z M261.3,282.2
				c10.5-6,15.6-16.1,13.6-27.9c-1-5.8-2.8-11.5-5-16.9c-4.1-10.5-11-19.4-17.5-28.4c-10.4-14.5-21.8-28-35.8-39.2
				c-9.8-7.8-20.4-14-32.9-16.7c-11.8-2.6-22.7-0.9-32.8,6.2c-7.7,5.5-14.2,12.1-19.5,19.9c-8.3,12.1-13.8,25.6-18,39.6
				c-6,20.1-10.2,40.5-8.8,61.7c0.6,9,2.3,17.7,7.5,25.3c5.5,8.1,13,12.6,22.8,11.9c5.2-0.4,10.4-1.5,15.3-3.2
				c10.1-3.5,19.1-9.3,27.7-15.7c8.5-6.3,17.8-9.6,28.4-8.8c4.6,0.3,9.1,0.5,14.3,0.8c4.7-0.3,9.9-0.5,15.1-1
				C244.8,288.7,253.5,286.7,261.3,282.2z M217.1,68.2c-0.8-6.3-1.2-12.6-2.4-18.8c-2.3-11.6-7.1-22-15.7-30.4
				c-8.7-8.5-20.3-10.8-30.9-6c-7.4,3.3-13.5,8.5-17.4,15.6C138.6,50.7,137,74,145.1,97.8c2.9,8.6,7.4,16.4,14.5,22.3
				c9.5,7.9,21.8,9,32,2c4.2-2.8,7.9-6.7,11.1-10.6C212.9,98.9,216.8,84.2,217.1,68.2z M135.9,109.1c-0.4-4-0.6-8.9-1.6-13.7
				c-3.6-17.1-13-30.8-25.5-42.6c-6.8-6.4-14.6-11.3-23.8-13.8C71.4,35.1,58.8,39.5,52,50.4c-4.3,6.8-6.4,14.4-5.8,22.4
				c1.7,21.3,10.7,39.3,25.9,54.2c7.5,7.4,16,13.1,26.2,15.9c17.7,4.9,32.5-4.1,36.2-22C135.2,117.4,135.4,113.7,135.9,109.1z
				 M87.9,228.7c13.6-2.2,22.3-12.6,21.1-25.9c-0.4-5-1.5-10.2-3.7-14.7c-12-24.5-31.5-38.4-59.1-40.2c-2.2,0.1-4.5,0.1-6.7,0.3
				c-14.1,1.6-23.4,12.3-22.2,26.4c0.4,5,1.8,10.1,3.8,14.6c8.3,17.8,22.1,29.8,40.2,36.9C69.8,229.5,78.8,230.1,87.9,228.7z"/>
			<path class="st1" d="M596.5,361.2c0,0.3,0,0.6,0,0.9c0,28.5-25.9,56-48.8,60.8c-8.9,1.9-17.2,1.4-24.5-4.7
				c-5.1-4.3-7.5-9.8-8.4-15.9c-0.2-1.4-0.3-2.8-0.4-4.3c-0.4-9.7,1.2-19.1,5.9-27.8c8.5-15.8,20.3-28,37.1-34.9
				c6.2-2.5,12.6-3.8,19.3-2.5c10.9,2.1,18.4,10.8,19.5,22.4C596.4,357.2,596.4,359.3,596.5,361.2z"/>
			<path class="st1" d="M579.2,261c0.1,1.2,0,2.5,0,3.8c0.1,6.8-1,13.5-3.5,19.8c-7.4,19.2-18.9,35.2-37.7,44.8
				c-6.9,3.5-14.3,6-22.2,6.4c-17,0.9-29.1-10.1-30-27.1c-0.8-13.7,3.3-26.2,10.2-37.8c9.1-15.4,21.5-27.5,38.2-34.7
				c7.5-3.2,15.5-4,23.5-2.1C570.1,236.8,578.3,247.2,579.2,261z"/>
			<path class="st1" d="M508.1,432.5c0.1,3,0,6,0,9.9c-0.5,11.5-0.2,24-3.9,36c-1.3,4.1-2.7,8.2-4.7,12.1
				c-5.4,10.2-13.6,15.4-24,15.4c-2.4,0-4.9-0.3-7.6-0.8c-10.6-2.3-20-7.3-28.8-13.4c-5.2-3.7-10.4-7.6-15.2-11.8
				c-8.5-7.6-18.4-11-29.7-11c-10.5,0-21-1.1-31.1-4c-2.3-0.7-4.6-1.5-6.8-2.4c-15.2-6.6-21.1-18.4-17.5-34.5
				c1.5-6.7,4.8-12.6,8.5-18.2c11-17,25.8-30.2,41.7-42.3c12.3-9.3,25.3-17.3,40-22.2c12-4.1,24.3-5.5,36.9-2.9
				c5.1,1.1,9.3,3.5,13.3,6.6c10.8,8.5,17.2,20,21.4,32.8c2.4,7.2,4.1,14.6,5.2,22C507.4,413.1,507.9,422.7,508.1,432.5z"/>
			<path class="st1" d="M488.3,247c-0.4,11-2,21.6-6.5,31.7c-3.9,8.6-9.4,16.2-16.5,22.3c-12.6,10.8-28.6,9.6-39.6-2.9
				c-1.9-2.1-3.5-4.5-5-6.9c-6.1-9.8-8.7-20.8-9.2-32.1c-0.9-17.9,2.6-34.9,12.4-50.1c4.6-7.1,11-12.4,19-15.1
				c10.9-3.7,20.6-1.2,28.8,6.7c8.3,7.9,12.4,18,14.5,29C487.2,235.4,487.6,241.2,488.3,247z"/>
			<path class="st1" d="M404.4,320.7c0,11-1.8,19.6-6.2,27.5c-7,12.8-20.1,17-33.2,10.5c-8.1-4-14.9-9.7-19.7-17.3
				c-11.1-17.3-15.1-36.1-10.4-56.3c1-4.3,2.9-8.6,5.2-12.3c7-11.4,19.9-14.9,31.8-8.7c10.5,5.6,18.8,13.7,24.2,24.5
				C401.4,299.3,404.1,310.8,404.4,320.7z"/>
			<path class="st1" d="M271.5,87c10.5,11.7,15.7,25.5,15.2,40.6c-0.1,11.1-1.5,21.2-6,30.6c-2.7,5.8-6.2,11-10.8,15.5
				c-10.7,10.3-25,10.3-35.4-0.2c-9.1-9.2-14.2-20.4-15.4-33.3c-1.4-14.9,0.5-29.3,7.7-42.6c2.2-4,5-8,8.2-11.2
				C245.8,75.2,261.1,75.4,271.5,87z"/>
			<path class="st1" d="M274.9,254.2c2.1,11.9-3.1,21.9-13.6,27.9c-7.9,4.5-16.5,6.6-25.5,7.5c-5.2,0.5-10.5,0.7-15.1,1
				c-5.2-0.3-9.7-0.5-14.3-0.8c-10.6-0.7-20,2.5-28.4,8.8c-8.6,6.4-17.6,12.2-27.7,15.7c-4.9,1.7-10.1,2.9-15.3,3.2
				c-9.8,0.7-17.3-3.8-22.8-11.9c-5.2-7.6-6.9-16.3-7.5-25.3c-1.5-21.2,2.7-41.6,8.8-61.7c4.2-14,9.7-27.5,18-39.6
				c5.3-7.8,11.8-14.4,19.5-19.9c10.1-7.1,21-8.8,32.8-6.2c12.4,2.7,23.1,8.9,32.9,16.7c14,11.2,25.4,24.8,35.8,39.2
				c6.5,9,13.4,17.9,17.5,28.4C272.1,242.7,273.9,248.4,274.9,254.2z"/>
			<path class="st1" d="M214.7,49.4c1.2,6.2,1.7,12.5,2.4,18.8c-0.3,16-4.2,30.8-14.4,43.4c-3.2,4-6.9,7.8-11.1,10.6
				c-10.2,7-22.5,5.9-32-2c-7.1-5.9-11.6-13.7-14.5-22.3c-8.1-23.9-6.5-47.1,5.7-69.3c3.9-7.1,9.9-12.3,17.4-15.6
				c10.6-4.7,22.2-2.5,30.9,6C207.6,27.3,212.4,37.8,214.7,49.4z"/>
			<path class="st1" d="M134.3,95.4c1,4.8,1.2,9.7,1.6,13.7c-0.5,4.6-0.7,8.3-1.4,11.9c-3.7,17.9-18.5,26.9-36.2,22
				c-10.2-2.8-18.8-8.5-26.2-15.9c-15.1-15-24.2-32.9-25.9-54.2c-0.6-8,1.5-15.6,5.8-22.4c6.8-11,19.4-15.3,33.1-11.5
				c9.1,2.5,16.9,7.4,23.8,13.8C121.4,64.5,130.8,78.3,134.3,95.4z"/>
			<path class="st1" d="M109,202.8c1.2,13.2-7.5,23.7-21.1,25.9c-9.1,1.4-18.1,0.9-26.6-2.5c-18.1-7.1-32-19.1-40.2-36.9
				c-2.1-4.5-3.4-9.6-3.8-14.6c-1.2-14.1,8-24.8,22.2-26.4c2.2-0.2,4.5-0.2,6.7-0.3c27.7,1.8,47.1,15.8,59.1,40.2
				C107.5,192.6,108.5,197.8,109,202.8z"/>
		</g>
		<g>
		</g>
	</g>
</g>
</svg>
