<?xml version="1.0" encoding="utf-8"?>
<!-- Generator: Adobe Illustrator 18.1.1, SVG Export Plug-In . SVG Version: 6.00 Build 0)  -->
<svg version="1.1" id="Layer_1" xmlns="http://www.w3.org/2000/svg" xmlns:xlink="http://www.w3.org/1999/xlink" x="0px" y="0px"
	 viewBox="0 0 269.6 307.2" style="enable-background:new 0 0 269.6 307.2;" xml:space="preserve">
<style type="text/css">
	.st0{fill:#C2B59B;}
</style>
<path class="st0" d="M201.6,276.4c-5-0.3-9.4-0.5-13.9-0.8c-10.3-0.7-19.4,2.5-27.6,8.6c-8.3,6.2-17.1,11.8-26.9,15.2
	c-4.8,1.6-9.8,2.8-14.8,3.1c-9.5,0.7-16.8-3.7-22.1-11.5c-5-7.4-6.7-15.8-7.3-24.6c-1.4-20.6,2.7-40.4,8.5-59.9
	c4.1-13.6,9.4-26.6,17.5-38.4c5.2-7.5,11.4-14,18.9-19.3c9.8-6.9,20.3-8.5,31.8-6.1c12.1,2.6,22.4,8.6,31.9,16.2
	c13.6,10.8,24.6,24,34.7,38c6.3,8.8,13,17.4,17,27.6c2.1,5.3,3.8,10.8,4.8,16.4c2,11.5-3,21.3-13.1,27.1c-7.6,4.4-16,6.4-24.7,7.3
	C211.2,275.9,206.1,276.1,201.6,276.4z"/>
<path class="st0" d="M198,60.5c-0.3,15.6-4.1,29.9-14,42.1c-3.1,3.8-6.7,7.6-10.8,10.3c-9.9,6.8-21.8,5.8-31-1.9
	c-6.9-5.8-11.3-13.3-14.1-21.7c-7.9-23.2-6.3-45.7,5.5-67.2c3.8-6.9,9.6-11.9,16.9-15.2c10.3-4.6,21.6-2.4,30,5.9
	c8.3,8.1,13,18.3,15.2,29.5C196.8,48.3,197.3,54.4,198,60.5z"/>
<path class="st0" d="M119.3,100.2c-0.5,4.5-0.7,8.1-1.4,11.5c-3.6,17.4-18,26.1-35.1,21.3c-9.9-2.7-18.2-8.3-25.4-15.4
	c-14.7-14.5-23.5-32-25.1-52.6c-0.6-7.7,1.5-15.1,5.6-21.7C44.5,32.7,56.7,28.5,70,32.2c8.8,2.5,16.4,7.2,23,13.4
	c12.1,11.4,21.3,24.8,24.7,41.4C118.7,91.6,118.8,96.4,119.3,100.2z"/>
<path class="st0" d="M265.6,118.2c-0.1,10.8-1.5,20.5-5.8,29.7c-2.6,5.6-6,10.7-10.5,15c-10.3,10-24.2,10-34.4-0.2
	c-8.8-8.9-13.8-19.8-15-32.3c-1.3-14.5,0.5-28.4,7.5-41.3c2.1-3.9,4.8-7.7,7.9-10.9c10.6-10.8,25.4-10.6,35.5,0.6
	C261,90.1,266,103.5,265.6,118.2z"/>
<path class="st0" d="M32.1,137.9c26.8,1.7,45.7,15.3,57.4,39c2.1,4.3,3.2,9.4,3.6,14.2c1.1,12.8-7.3,23-20.5,25.1
	c-8.8,1.4-17.5,0.8-25.8-2.4c-17.5-6.9-31-18.6-39-35.8c-2-4.4-3.3-9.4-3.7-14.2c-1.2-13.7,7.8-24.1,21.5-25.6
	C27.8,138,30,138,32.1,137.9z"/>
<g>
</g>
<g>
</g>
<g>
</g>
<g>
</g>
<g>
</g>
<g>
</g>
</svg>
