<?xml version="1.0" encoding="utf-8"?>
<!-- Generator: Adobe Illustrator 18.1.1, SVG Export Plug-In . SVG Version: 6.00 Build 0)  -->
<svg version="1.1" id="Layer_1" xmlns="http://www.w3.org/2000/svg" xmlns:xlink="http://www.w3.org/1999/xlink" x="0px" y="0px"
	 viewBox="0 0 269.6 307.2" style="enable-background:new 0 0 269.6 307.2;" xml:space="preserve">
<style type="text/css">
	.st0{fill:#C2B59B;}
</style>
<path class="st0" d="M176.4,243.1c-0.5,11-0.2,23-3.8,34.5c-1.2,3.9-2.6,7.9-4.5,11.6c-6.4,12.1-16.9,16.8-30.3,14
	c-10.2-2.2-19.2-7-27.6-12.9c-5-3.5-10-7.2-14.5-11.3c-8.2-7.3-17.6-10.6-28.5-10.6c-10.1,0-20.1-1-29.8-3.8
	c-2.2-0.6-4.4-1.4-6.5-2.3c-14.6-6.3-20.3-17.6-16.7-33.1c1.5-6.4,4.6-12,8.2-17.5c10.5-16.3,24.7-29,40-40.5
	c11.8-8.9,24.3-16.6,38.4-21.3c11.5-3.9,23.3-5.3,35.4-2.7c4.9,1,8.9,3.4,12.7,6.4c10.4,8.1,16.5,19.2,20.5,31.4
	c5.3,15.9,6.7,32.3,7.1,48.9C176.5,236.5,176.4,239.3,176.4,243.1z"/>
<path class="st0" d="M244.6,72.7c0.1,6.5-1,12.9-3.3,19c-7.1,18.4-18.2,33.7-36.2,42.9c-6.6,3.4-13.7,5.7-21.3,6.1
	c-16.3,0.8-27.9-9.7-28.8-26c-0.8-13.2,3.2-25.2,9.8-36.2c8.8-14.8,20.6-26.4,36.6-33.3c7.2-3.1,14.9-3.8,22.5-2
	c12,2.7,19.9,12.8,20.7,26C244.6,70.3,244.6,71.5,244.6,72.7z"/>
<path class="st0" d="M157.4,55.7c-0.4,10.5-1.9,20.8-6.2,30.4c-3.7,8.3-9,15.5-15.9,21.4c-12.1,10.3-27.4,9.2-37.9-2.7
	c-1.8-2-3.4-4.3-4.8-6.6c-5.8-9.4-8.3-19.9-8.9-30.8c-0.9-17.1,2.5-33.4,11.9-48c4.4-6.8,10.5-11.8,18.3-14.5
	c10.4-3.6,19.7-1.1,27.6,6.4c7.9,7.6,11.9,17.3,13.9,27.8C156.4,44.6,156.8,50.2,157.4,55.7z"/>
<path class="st0" d="M261.2,165.3c0.6,27.6-24.6,54.6-46.8,59.2c-8.6,1.8-16.5,1.4-23.5-4.5c-6-5.1-8.1-11.9-8.4-19.4
	c-0.4-9.3,1.2-18.3,5.6-26.6c8.1-15.1,19.5-26.8,35.6-33.4c5.9-2.4,12.1-3.6,18.5-2.4c10.4,2,17.7,10.3,18.7,21.5
	C261.1,161.5,261.1,163.4,261.2,165.3z"/>
<path class="st0" d="M77,126.4c0,10.6-1.8,18.8-5.9,26.4c-6.7,12.3-19.3,16.3-31.9,10.1c-7.7-3.8-14.2-9.3-18.9-16.6
	c-10.6-16.6-14.5-34.6-10-54c0.9-4.1,2.8-8.2,5-11.8c6.8-10.9,19.1-14.3,30.5-8.3C55.9,77.5,63.8,85.3,69,95.6
	C74.1,105.9,76.6,116.9,77,126.4z"/>
<g>
</g>
<g>
</g>
<g>
</g>
<g>
</g>
<g>
</g>
<g>
</g>
</svg>
